<?xml version="1.0" encoding="UTF-8" standalone="no"?>
<!DOCTYPE svg PUBLIC "-//W3C//DTD SVG 1.1//EN"
 "http://www.w3.org/Graphics/SVG/1.1/DTD/svg11.dtd">
<!-- Generated by graphviz version 2.40.1 (20161225.0304)
 -->
<!-- Title: env Pages: 1 -->
<svg width="570pt" height="652pt"
 viewBox="0.00 0.00 570.00 652.00" xmlns="http://www.w3.org/2000/svg" xmlns:xlink="http://www.w3.org/1999/xlink">
<g id="graph0" class="graph" transform="scale(1 1) rotate(0) translate(4 648)">
<title>env</title>
<polygon fill="#ffffff" stroke="transparent" points="-4,4 -4,-648 566,-648 566,4 -4,4"/>
<!-- env -->
<g id="node1" class="node">
<title>env</title>
<polygon fill="#efefef" stroke="transparent" points="212,-195.5 212,-230.5 350,-230.5 350,-195.5 212,-195.5"/>
<polygon fill="none" stroke="#000000" points="212,-195.5 212,-230.5 350,-230.5 350,-195.5 212,-195.5"/>
<text text-anchor="start" x="230.3283" y="-208.3" font-family="Arial Bold" font-size="18.00" fill="#000000">env</text>
<text text-anchor="start" x="259.3407" y="-208.3" font-family="Arial" font-size="14.00" fill="#000000">    </text>
<text text-anchor="start" x="293.5455" y="-208.3" font-family="Arial" font-size="14.00" fill="#666666">[table]</text>
<polygon fill="none" stroke="#000000" points="212,-165.5 212,-195.5 350,-195.5 350,-165.5 212,-165.5"/>
<text text-anchor="start" x="219" y="-176.9" font-family="Arial" font-size="14.00" fill="#000000">env_id </text>
<text text-anchor="start" x="264.1276" y="-176.9" font-family="Arial" font-size="14.00" fill="#666666">[INTEGER]</text>
<polygon fill="none" stroke="#000000" points="212,-135.5 212,-165.5 350,-165.5 350,-135.5 212,-135.5"/>
<text text-anchor="start" x="219" y="-146.9" font-family="Arial" font-size="14.00" fill="#000000">name </text>
<text text-anchor="start" x="257.899" y="-146.9" font-family="Arial" font-size="14.00" fill="#666666">[TEXT]</text>
<polygon fill="none" stroke="#000000" points="212,-105.5 212,-135.5 350,-135.5 350,-105.5 212,-105.5"/>
<text text-anchor="start" x="219" y="-116.9" font-family="Arial" font-size="14.00" fill="#000000">comment </text>
<text text-anchor="start" x="280.4502" y="-116.9" font-family="Arial" font-size="14.00" fill="#666666">[TEXT]</text>
<polygon fill="none" stroke="#000000" points="212,-75.5 212,-105.5 350,-105.5 350,-75.5 212,-75.5"/>
<text text-anchor="start" x="219" y="-86.9" font-family="Arial" font-size="14.00" fill="#000000">create_time </text>
<text text-anchor="start" x="296.0126" y="-86.9" font-family="Arial" font-size="14.00" fill="#666666">[TEXT]</text>
<polygon fill="none" stroke="#000000" points="212,-45.5 212,-75.5 350,-75.5 350,-45.5 212,-45.5"/>
<text text-anchor="start" x="218.7616" y="-56.9" font-family="Arial" font-size="14.00" fill="#000000">update_time </text>
<text text-anchor="start" x="299.6788" y="-56.9" font-family="Arial" font-size="14.00" fill="#666666">[TEXT]</text>
<polygon fill="none" stroke="#000000" stroke-width="3" points="210.5,-44.5 210.5,-232.5 351.5,-232.5 351.5,-44.5 210.5,-44.5"/>
</g>
<!-- env_var -->
<g id="node2" class="node">
<title>env_var</title>
<polygon fill="#efefef" stroke="transparent" points="43,-565.5 43,-600.5 229,-600.5 229,-565.5 43,-565.5"/>
<polygon fill="none" stroke="#000000" points="43,-565.5 43,-600.5 229,-600.5 229,-565.5 43,-565.5"/>
<text text-anchor="start" x="67.826" y="-578.3" font-family="Arial Bold" font-size="18.00" fill="#000000">env_var</text>
<text text-anchor="start" x="131.843" y="-578.3" font-family="Arial" font-size="14.00" fill="#000000">    </text>
<text text-anchor="start" x="166.0478" y="-578.3" font-family="Arial" font-size="14.00" fill="#666666">[table]</text>
<polygon fill="none" stroke="#000000" points="43,-535.5 43,-565.5 229,-565.5 229,-535.5 43,-535.5"/>
<text text-anchor="start" x="49.6655" y="-546.9" font-family="Arial" font-size="14.00" fill="#000000">env_var_id    </text>
<text text-anchor="start" x="152.3331" y="-546.9" font-family="Arial" font-size="14.00" fill="#666666">[INTEGER]</text>
<polygon fill="none" stroke="#000000" points="43,-505.5 43,-535.5 229,-535.5 229,-505.5 43,-505.5"/>
<text text-anchor="start" x="50" y="-516.9" font-family="Arial" font-size="14.00" fill="#000000">env_id    </text>
<text text-anchor="start" x="125.4418" y="-516.9" font-family="Arial" font-size="14.00" fill="#666666">[INTEGER]</text>
<polygon fill="none" stroke="#000000" points="43,-475.5 43,-505.5 229,-505.5 229,-475.5 43,-475.5"/>
<text text-anchor="start" x="50" y="-486.9" font-family="Arial" font-size="14.00" fill="#000000">name    </text>
<text text-anchor="start" x="119.2132" y="-486.9" font-family="Arial" font-size="14.00" fill="#666666">[TEXT]</text>
<polygon fill="none" stroke="#000000" points="43,-445.5 43,-475.5 229,-475.5 229,-445.5 43,-445.5"/>
<text text-anchor="start" x="50" y="-456.9" font-family="Arial" font-size="14.00" fill="#000000">comment    </text>
<text text-anchor="start" x="141.7644" y="-456.9" font-family="Arial" font-size="14.00" fill="#666666">[TEXT]</text>
<polygon fill="none" stroke="#000000" points="43,-415.5 43,-445.5 229,-445.5 229,-415.5 43,-415.5"/>
<text text-anchor="start" x="50" y="-426.9" font-family="Arial" font-size="14.00" fill="#000000">create_time    </text>
<text text-anchor="start" x="157.3268" y="-426.9" font-family="Arial" font-size="14.00" fill="#666666">[TEXT]</text>
<polygon fill="none" stroke="#000000" points="43,-385.5 43,-415.5 229,-415.5 229,-385.5 43,-385.5"/>
<text text-anchor="start" x="50" y="-396.9" font-family="Arial" font-size="14.00" fill="#000000">update_time    </text>
<text text-anchor="start" x="161.2314" y="-396.9" font-family="Arial" font-size="14.00" fill="#666666">[TEXT]</text>
<polygon fill="none" stroke="#000000" points="43,-355.5 43,-385.5 229,-385.5 229,-355.5 43,-355.5"/>
<text text-anchor="start" x="50" y="-366.9" font-family="Arial" font-size="14.00" fill="#000000">value    </text>
<text text-anchor="start" x="117.6592" y="-366.9" font-family="Arial" font-size="14.00" fill="#666666">[TEXT]</text>
</g>
<!-- env_var&#45;&gt;env -->
<g id="edge1" class="edge">
<title>env_var:env_id&#45;&gt;env:env_id</title>
<path fill="none" stroke="#000000" d="M239.0682,-519.9707C315.673,-511.3613 248.3905,-399.4724 229,-313 225.1284,-295.7345 215.8716,-294.2655 212,-277 202.6157,-235.1504 169.1111,-180.5 212,-180.5"/>
<polygon fill="#000000" stroke="#000000" points="238.9862,-519.9749 228.7637,-516.0062 233.9931,-520.2375 229,-520.5 229,-520.5 229,-520.5 233.9931,-520.2375 229.2363,-524.9938 238.9862,-519.9749 238.9862,-519.9749"/>
</g>
<!-- env_ref -->
<g id="node3" class="node">
<title>env_ref</title>
<polygon fill="#efefef" stroke="transparent" points="333,-565.5 333,-600.5 519,-600.5 519,-565.5 333,-565.5"/>
<polygon fill="none" stroke="#000000" points="333,-565.5 333,-600.5 519,-600.5 519,-565.5 333,-565.5"/>
<text text-anchor="start" x="359.8249" y="-578.3" font-family="Arial Bold" font-size="18.00" fill="#000000">env_ref</text>
<text text-anchor="start" x="419.8441" y="-578.3" font-family="Arial" font-size="14.00" fill="#000000">    </text>
<text text-anchor="start" x="454.0489" y="-578.3" font-family="Arial" font-size="14.00" fill="#666666">[table]</text>
<polygon fill="none" stroke="#000000" points="333,-535.5 333,-565.5 519,-565.5 519,-535.5 333,-535.5"/>
<text text-anchor="start" x="340" y="-546.9" font-family="Arial" font-size="14.00" fill="#000000">env_ref_id    </text>
<text text-anchor="start" x="439.5582" y="-546.9" font-family="Arial" font-size="14.00" fill="#666666">[INTEGER]</text>
<polygon fill="none" stroke="#000000" points="333,-505.5 333,-535.5 519,-535.5 519,-505.5 333,-505.5"/>
<text text-anchor="start" x="340" y="-516.9" font-family="Arial" font-size="14.00" fill="#000000">env_id    </text>
<text text-anchor="start" x="415.4418" y="-516.9" font-family="Arial" font-size="14.00" fill="#666666">[INTEGER]</text>
<polygon fill="none" stroke="#000000" points="333,-475.5 333,-505.5 519,-505.5 519,-475.5 333,-475.5"/>
<text text-anchor="start" x="340" y="-486.9" font-family="Arial" font-size="14.00" fill="#000000">name    </text>
<text text-anchor="start" x="409.2132" y="-486.9" font-family="Arial" font-size="14.00" fill="#666666">[TEXT]</text>
<polygon fill="none" stroke="#000000" points="333,-445.5 333,-475.5 519,-475.5 519,-445.5 333,-445.5"/>
<text text-anchor="start" x="340" y="-456.9" font-family="Arial" font-size="14.00" fill="#000000">comment    </text>
<text text-anchor="start" x="431.7644" y="-456.9" font-family="Arial" font-size="14.00" fill="#666666">[TEXT]</text>
<polygon fill="none" stroke="#000000" points="333,-415.5 333,-445.5 519,-445.5 519,-415.5 333,-415.5"/>
<text text-anchor="start" x="340" y="-426.9" font-family="Arial" font-size="14.00" fill="#000000">create_time    </text>
<text text-anchor="start" x="447.3268" y="-426.9" font-family="Arial" font-size="14.00" fill="#666666">[TEXT]</text>
<polygon fill="none" stroke="#000000" points="333,-385.5 333,-415.5 519,-415.5 519,-385.5 333,-385.5"/>
<text text-anchor="start" x="340" y="-396.9" font-family="Arial" font-size="14.00" fill="#000000">update_time    </text>
<text text-anchor="start" x="451.2314" y="-396.9" font-family="Arial" font-size="14.00" fill="#666666">[TEXT]</text>
<polygon fill="none" stroke="#000000" points="333,-355.5 333,-385.5 519,-385.5 519,-355.5 333,-355.5"/>
<text text-anchor="start" x="339.6655" y="-366.9" font-family="Arial" font-size="14.00" fill="#000000">env_var_id    </text>
<text text-anchor="start" x="442.3331" y="-366.9" font-family="Arial" font-size="14.00" fill="#666666">[INTEGER]</text>
</g>
<!-- env_ref&#45;&gt;env -->
<g id="edge2" class="edge">
<title>env_ref:env_id&#45;&gt;env:env_id</title>
<path fill="none" stroke="#000000" d="M322.9318,-519.9707C246.327,-511.3613 313.6095,-399.4724 333,-313 336.8716,-295.7345 346.1284,-294.2655 350,-277 359.3843,-235.1504 392.8889,-180.5 350,-180.5"/>
<polygon fill="#000000" stroke="#000000" points="323.0138,-519.9749 332.7637,-524.9938 328.0069,-520.2375 333,-520.5 333,-520.5 333,-520.5 328.0069,-520.2375 333.2363,-516.0062 323.0138,-519.9749 323.0138,-519.9749"/>
</g>
</g>
</svg>
