<?xml version="1.0" encoding="UTF-8" standalone="no"?>
<!DOCTYPE svg PUBLIC "-//W3C//DTD SVG 1.1//EN"
 "http://www.w3.org/Graphics/SVG/1.1/DTD/svg11.dtd">
<!-- Generated by graphviz version 2.40.1 (20161225.0304)
 -->
<!-- Title: env Pages: 1 -->
<svg width="546pt" height="652pt"
 viewBox="0.00 0.00 546.00 652.00" xmlns="http://www.w3.org/2000/svg" xmlns:xlink="http://www.w3.org/1999/xlink">
<g id="graph0" class="graph" transform="scale(1 1) rotate(0) translate(4 648)">
<title>env</title>
<polygon fill="#ffffff" stroke="transparent" points="-4,4 -4,-648 542,-648 542,4 -4,4"/>
<!-- env -->
<g id="node1" class="node">
<title>env</title>
<polygon fill="#efefef" stroke="transparent" points="197,-195.5 197,-230.5 335,-230.5 335,-195.5 197,-195.5"/>
<polygon fill="none" stroke="#000000" points="197,-195.5 197,-230.5 335,-230.5 335,-195.5 197,-195.5"/>
<text text-anchor="start" x="215.3283" y="-208.3" font-family="Arial Bold" font-size="18.00" fill="#000000">env</text>
<text text-anchor="start" x="244.3407" y="-208.3" font-family="Arial" font-size="14.00" fill="#000000">    </text>
<text text-anchor="start" x="278.5455" y="-208.3" font-family="Arial" font-size="14.00" fill="#666666">[table]</text>
<polygon fill="none" stroke="#000000" points="197,-165.5 197,-195.5 335,-195.5 335,-165.5 197,-165.5"/>
<text text-anchor="start" x="204" y="-176.9" font-family="Arial" font-size="14.00" fill="#000000">env_id </text>
<text text-anchor="start" x="249.1276" y="-176.9" font-family="Arial" font-size="14.00" fill="#666666">[INTEGER]</text>
<polygon fill="none" stroke="#000000" points="197,-135.5 197,-165.5 335,-165.5 335,-135.5 197,-135.5"/>
<text text-anchor="start" x="204" y="-146.9" font-family="Arial" font-size="14.00" fill="#000000">name </text>
<text text-anchor="start" x="242.899" y="-146.9" font-family="Arial" font-size="14.00" fill="#666666">[TEXT]</text>
<polygon fill="none" stroke="#000000" points="197,-105.5 197,-135.5 335,-135.5 335,-105.5 197,-105.5"/>
<text text-anchor="start" x="204" y="-116.9" font-family="Arial" font-size="14.00" fill="#000000">comment </text>
<text text-anchor="start" x="265.4502" y="-116.9" font-family="Arial" font-size="14.00" fill="#666666">[TEXT]</text>
<polygon fill="none" stroke="#000000" points="197,-75.5 197,-105.5 335,-105.5 335,-75.5 197,-75.5"/>
<text text-anchor="start" x="204" y="-86.9" font-family="Arial" font-size="14.00" fill="#000000">create_time </text>
<text text-anchor="start" x="281.0126" y="-86.9" font-family="Arial" font-size="14.00" fill="#666666">[TEXT]</text>
<polygon fill="none" stroke="#000000" points="197,-45.5 197,-75.5 335,-75.5 335,-45.5 197,-45.5"/>
<text text-anchor="start" x="203.7616" y="-56.9" font-family="Arial" font-size="14.00" fill="#000000">update_time </text>
<text text-anchor="start" x="284.6788" y="-56.9" font-family="Arial" font-size="14.00" fill="#666666">[TEXT]</text>
<polygon fill="none" stroke="#000000" stroke-width="3" points="195.5,-44.5 195.5,-232.5 336.5,-232.5 336.5,-44.5 195.5,-44.5"/>
</g>
<!-- var -->
<g id="node2" class="node">
<title>var</title>
<polygon fill="#efefef" stroke="transparent" points="43,-565.5 43,-600.5 211,-600.5 211,-565.5 43,-565.5"/>
<polygon fill="none" stroke="#000000" points="43,-565.5 43,-600.5 211,-600.5 211,-565.5 43,-565.5"/>
<text text-anchor="start" x="78.3353" y="-578.3" font-family="Arial Bold" font-size="18.00" fill="#000000">var</text>
<text text-anchor="start" x="103.3337" y="-578.3" font-family="Arial" font-size="14.00" fill="#000000">    </text>
<text text-anchor="start" x="137.5385" y="-578.3" font-family="Arial" font-size="14.00" fill="#666666">[table]</text>
<polygon fill="none" stroke="#000000" points="43,-535.5 43,-565.5 211,-565.5 211,-535.5 43,-535.5"/>
<text text-anchor="start" x="50" y="-546.9" font-family="Arial" font-size="14.00" fill="#000000">var_id    </text>
<text text-anchor="start" x="122.3198" y="-546.9" font-family="Arial" font-size="14.00" fill="#666666">[INTEGER]</text>
<polygon fill="none" stroke="#000000" points="43,-505.5 43,-535.5 211,-535.5 211,-505.5 43,-505.5"/>
<text text-anchor="start" x="50" y="-516.9" font-family="Arial" font-size="14.00" fill="#000000">env_id    </text>
<text text-anchor="start" x="125.4418" y="-516.9" font-family="Arial" font-size="14.00" fill="#666666">[INTEGER]</text>
<polygon fill="none" stroke="#000000" points="43,-475.5 43,-505.5 211,-505.5 211,-475.5 43,-475.5"/>
<text text-anchor="start" x="50" y="-486.9" font-family="Arial" font-size="14.00" fill="#000000">name    </text>
<text text-anchor="start" x="119.2132" y="-486.9" font-family="Arial" font-size="14.00" fill="#666666">[TEXT]</text>
<polygon fill="none" stroke="#000000" points="43,-445.5 43,-475.5 211,-475.5 211,-445.5 43,-445.5"/>
<text text-anchor="start" x="50" y="-456.9" font-family="Arial" font-size="14.00" fill="#000000">comment    </text>
<text text-anchor="start" x="141.7644" y="-456.9" font-family="Arial" font-size="14.00" fill="#666666">[TEXT]</text>
<polygon fill="none" stroke="#000000" points="43,-415.5 43,-445.5 211,-445.5 211,-415.5 43,-415.5"/>
<text text-anchor="start" x="50" y="-426.9" font-family="Arial" font-size="14.00" fill="#000000">create_time    </text>
<text text-anchor="start" x="157.3268" y="-426.9" font-family="Arial" font-size="14.00" fill="#666666">[TEXT]</text>
<polygon fill="none" stroke="#000000" points="43,-385.5 43,-415.5 211,-415.5 211,-385.5 43,-385.5"/>
<text text-anchor="start" x="49.6045" y="-396.9" font-family="Arial" font-size="14.00" fill="#000000">update_time    </text>
<text text-anchor="start" x="160.8359" y="-396.9" font-family="Arial" font-size="14.00" fill="#666666">[TEXT]</text>
<polygon fill="none" stroke="#000000" points="43,-355.5 43,-385.5 211,-385.5 211,-355.5 43,-355.5"/>
<text text-anchor="start" x="50" y="-366.9" font-family="Arial" font-size="14.00" fill="#000000">value    </text>
<text text-anchor="start" x="117.6592" y="-366.9" font-family="Arial" font-size="14.00" fill="#666666">[TEXT]</text>
</g>
<!-- var&#45;&gt;env -->
<g id="edge1" class="edge">
<title>var:env_id&#45;&gt;env:env_id</title>
<path fill="none" stroke="#000000" d="M221.0543,-519.9736C297.4347,-511.4104 227.3401,-400.1003 211,-313 207.8346,-296.1271 200.1654,-293.8729 197,-277 189.092,-234.8465 154.1111,-180.5 197,-180.5"/>
<polygon fill="#000000" stroke="#000000" points="220.9863,-519.9771 210.7647,-516.0062 215.9932,-520.2385 211,-520.5 211,-520.5 211,-520.5 215.9932,-520.2385 211.2353,-524.9938 220.9863,-519.9771 220.9863,-519.9771"/>
</g>
<!-- var_ref -->
<g id="node3" class="node">
<title>var_ref</title>
<polygon fill="#efefef" stroke="transparent" points="315,-565.5 315,-600.5 495,-600.5 495,-565.5 315,-565.5"/>
<polygon fill="none" stroke="#000000" points="315,-565.5 315,-600.5 495,-600.5 495,-565.5 315,-565.5"/>
<text text-anchor="start" x="340.8319" y="-578.3" font-family="Arial Bold" font-size="18.00" fill="#000000">var_ref</text>
<text text-anchor="start" x="396.8371" y="-578.3" font-family="Arial" font-size="14.00" fill="#000000">    </text>
<text text-anchor="start" x="431.0419" y="-578.3" font-family="Arial" font-size="14.00" fill="#666666">[table]</text>
<polygon fill="none" stroke="#000000" points="315,-535.5 315,-565.5 495,-565.5 495,-535.5 315,-535.5"/>
<text text-anchor="start" x="321.7812" y="-546.9" font-family="Arial" font-size="14.00" fill="#000000">var_ref_id    </text>
<text text-anchor="start" x="418.2174" y="-546.9" font-family="Arial" font-size="14.00" fill="#666666">[INTEGER]</text>
<polygon fill="none" stroke="#000000" points="315,-505.5 315,-535.5 495,-535.5 495,-505.5 315,-505.5"/>
<text text-anchor="start" x="322" y="-516.9" font-family="Arial" font-size="14.00" fill="#000000">env_id    </text>
<text text-anchor="start" x="397.4418" y="-516.9" font-family="Arial" font-size="14.00" fill="#666666">[INTEGER]</text>
<polygon fill="none" stroke="#000000" points="315,-475.5 315,-505.5 495,-505.5 495,-475.5 315,-475.5"/>
<text text-anchor="start" x="322" y="-486.9" font-family="Arial" font-size="14.00" fill="#000000">name    </text>
<text text-anchor="start" x="391.2132" y="-486.9" font-family="Arial" font-size="14.00" fill="#666666">[TEXT]</text>
<polygon fill="none" stroke="#000000" points="315,-445.5 315,-475.5 495,-475.5 495,-445.5 315,-445.5"/>
<text text-anchor="start" x="322" y="-456.9" font-family="Arial" font-size="14.00" fill="#000000">comment    </text>
<text text-anchor="start" x="413.7644" y="-456.9" font-family="Arial" font-size="14.00" fill="#666666">[TEXT]</text>
<polygon fill="none" stroke="#000000" points="315,-415.5 315,-445.5 495,-445.5 495,-415.5 315,-415.5"/>
<text text-anchor="start" x="322" y="-426.9" font-family="Arial" font-size="14.00" fill="#000000">create_time    </text>
<text text-anchor="start" x="429.3268" y="-426.9" font-family="Arial" font-size="14.00" fill="#666666">[TEXT]</text>
<polygon fill="none" stroke="#000000" points="315,-385.5 315,-415.5 495,-415.5 495,-385.5 315,-385.5"/>
<text text-anchor="start" x="322" y="-396.9" font-family="Arial" font-size="14.00" fill="#000000">update_time    </text>
<text text-anchor="start" x="433.2314" y="-396.9" font-family="Arial" font-size="14.00" fill="#666666">[TEXT]</text>
<polygon fill="none" stroke="#000000" points="315,-355.5 315,-385.5 495,-385.5 495,-355.5 315,-355.5"/>
<text text-anchor="start" x="322" y="-366.9" font-family="Arial" font-size="14.00" fill="#000000">var_id    </text>
<text text-anchor="start" x="394.3198" y="-366.9" font-family="Arial" font-size="14.00" fill="#666666">[INTEGER]</text>
</g>
<!-- var_ref&#45;&gt;env -->
<g id="edge2" class="edge">
<title>var_ref:env_id&#45;&gt;env:env_id</title>
<path fill="none" stroke="#000000" d="M304.9188,-519.9676C228.1052,-511.3077 292.7705,-398.7865 315,-313 319.5912,-295.2818 330.4088,-294.7182 335,-277 345.7583,-235.4823 377.8889,-180.5 335,-180.5"/>
<polygon fill="#000000" stroke="#000000" points="305.0139,-519.9725 314.7626,-524.9937 310.007,-520.2363 315,-520.5 315,-520.5 315,-520.5 310.007,-520.2363 315.2374,-516.0063 305.0139,-519.9725 305.0139,-519.9725"/>
</g>
</g>
</svg>
