<?xml version="1.0" encoding="UTF-8" standalone="no"?>
<!DOCTYPE svg PUBLIC "-//W3C//DTD SVG 1.1//EN"
 "http://www.w3.org/Graphics/SVG/1.1/DTD/svg11.dtd">
<!-- Generated by graphviz version 2.40.1 (20161225.0304)
 -->
<!-- Title: env_ref Pages: 1 -->
<svg width="552pt" height="712pt"
 viewBox="0.00 0.00 552.00 712.00" xmlns="http://www.w3.org/2000/svg" xmlns:xlink="http://www.w3.org/1999/xlink">
<g id="graph0" class="graph" transform="scale(1 1) rotate(0) translate(4 708)">
<title>env_ref</title>
<polygon fill="#ffffff" stroke="transparent" points="-4,4 -4,-708 548,-708 548,4 -4,4"/>
<!-- env_ref -->
<g id="node1" class="node">
<title>env_ref</title>
<polygon fill="#efefef" stroke="transparent" points="189,-622.5 189,-657.5 345,-657.5 345,-622.5 189,-622.5"/>
<polygon fill="none" stroke="#000000" points="189,-622.5 189,-657.5 345,-657.5 345,-622.5 189,-622.5"/>
<text text-anchor="start" x="200.8249" y="-635.3" font-family="Arial Bold" font-size="18.00" fill="#000000">env_ref</text>
<text text-anchor="start" x="260.8441" y="-635.3" font-family="Arial" font-size="14.00" fill="#000000">    </text>
<text text-anchor="start" x="295.0489" y="-635.3" font-family="Arial" font-size="14.00" fill="#666666">[table]</text>
<polygon fill="none" stroke="#000000" points="189,-592.5 189,-622.5 345,-622.5 345,-592.5 189,-592.5"/>
<text text-anchor="start" x="196" y="-603.9" font-family="Arial" font-size="14.00" fill="#000000">env_ref_id </text>
<text text-anchor="start" x="265.244" y="-603.9" font-family="Arial" font-size="14.00" fill="#666666">[INTEGER]</text>
<polygon fill="none" stroke="#000000" points="189,-562.5 189,-592.5 345,-592.5 345,-562.5 189,-562.5"/>
<text text-anchor="start" x="196" y="-573.9" font-family="Arial" font-size="14.00" fill="#000000">env_id </text>
<text text-anchor="start" x="241.1276" y="-573.9" font-family="Arial" font-size="14.00" fill="#666666">[INTEGER]</text>
<polygon fill="none" stroke="#000000" points="189,-532.5 189,-562.5 345,-562.5 345,-532.5 189,-532.5"/>
<text text-anchor="start" x="196" y="-543.9" font-family="Arial" font-size="14.00" fill="#000000">name </text>
<text text-anchor="start" x="234.899" y="-543.9" font-family="Arial" font-size="14.00" fill="#666666">[TEXT]</text>
<polygon fill="none" stroke="#000000" points="189,-502.5 189,-532.5 345,-532.5 345,-502.5 189,-502.5"/>
<text text-anchor="start" x="196" y="-513.9" font-family="Arial" font-size="14.00" fill="#000000">comment </text>
<text text-anchor="start" x="257.4502" y="-513.9" font-family="Arial" font-size="14.00" fill="#666666">[TEXT]</text>
<polygon fill="none" stroke="#000000" points="189,-472.5 189,-502.5 345,-502.5 345,-472.5 189,-472.5"/>
<text text-anchor="start" x="196" y="-483.9" font-family="Arial" font-size="14.00" fill="#000000">create_time </text>
<text text-anchor="start" x="273.0126" y="-483.9" font-family="Arial" font-size="14.00" fill="#666666">[TEXT]</text>
<polygon fill="none" stroke="#000000" points="189,-442.5 189,-472.5 345,-472.5 345,-442.5 189,-442.5"/>
<text text-anchor="start" x="196" y="-453.9" font-family="Arial" font-size="14.00" fill="#000000">update_time </text>
<text text-anchor="start" x="276.9172" y="-453.9" font-family="Arial" font-size="14.00" fill="#666666">[TEXT]</text>
<polygon fill="none" stroke="#000000" points="189,-412.5 189,-442.5 345,-442.5 345,-412.5 189,-412.5"/>
<text text-anchor="start" x="195.8226" y="-423.9" font-family="Arial" font-size="14.00" fill="#000000">env_var_id </text>
<text text-anchor="start" x="268.176" y="-423.9" font-family="Arial" font-size="14.00" fill="#666666">[INTEGER]</text>
<polygon fill="none" stroke="#000000" stroke-width="3" points="187.5,-411.5 187.5,-659.5 346.5,-659.5 346.5,-411.5 187.5,-411.5"/>
</g>
<!-- env -->
<g id="node2" class="node">
<title>env</title>
<polygon fill="#efefef" stroke="transparent" points="43,-222.5 43,-257.5 211,-257.5 211,-222.5 43,-222.5"/>
<polygon fill="none" stroke="#000000" points="43,-222.5 43,-257.5 211,-257.5 211,-222.5 43,-222.5"/>
<text text-anchor="start" x="76.3283" y="-235.3" font-family="Arial Bold" font-size="18.00" fill="#000000">env</text>
<text text-anchor="start" x="105.3407" y="-235.3" font-family="Arial" font-size="14.00" fill="#000000">    </text>
<text text-anchor="start" x="139.5455" y="-235.3" font-family="Arial" font-size="14.00" fill="#666666">[table]</text>
<polygon fill="none" stroke="#000000" points="43,-192.5 43,-222.5 211,-222.5 211,-192.5 43,-192.5"/>
<text text-anchor="start" x="50" y="-203.9" font-family="Arial" font-size="14.00" fill="#000000">env_id    </text>
<text text-anchor="start" x="125.4418" y="-203.9" font-family="Arial" font-size="14.00" fill="#666666">[INTEGER]</text>
<polygon fill="none" stroke="#000000" points="43,-162.5 43,-192.5 211,-192.5 211,-162.5 43,-162.5"/>
<text text-anchor="start" x="50" y="-173.9" font-family="Arial" font-size="14.00" fill="#000000">name    </text>
<text text-anchor="start" x="119.2132" y="-173.9" font-family="Arial" font-size="14.00" fill="#666666">[TEXT]</text>
<polygon fill="none" stroke="#000000" points="43,-132.5 43,-162.5 211,-162.5 211,-132.5 43,-132.5"/>
<text text-anchor="start" x="50" y="-143.9" font-family="Arial" font-size="14.00" fill="#000000">comment    </text>
<text text-anchor="start" x="141.7644" y="-143.9" font-family="Arial" font-size="14.00" fill="#666666">[TEXT]</text>
<polygon fill="none" stroke="#000000" points="43,-102.5 43,-132.5 211,-132.5 211,-102.5 43,-102.5"/>
<text text-anchor="start" x="50" y="-113.9" font-family="Arial" font-size="14.00" fill="#000000">create_time    </text>
<text text-anchor="start" x="157.3268" y="-113.9" font-family="Arial" font-size="14.00" fill="#666666">[TEXT]</text>
<polygon fill="none" stroke="#000000" points="43,-72.5 43,-102.5 211,-102.5 211,-72.5 43,-72.5"/>
<text text-anchor="start" x="49.6045" y="-83.9" font-family="Arial" font-size="14.00" fill="#000000">update_time    </text>
<text text-anchor="start" x="160.8359" y="-83.9" font-family="Arial" font-size="14.00" fill="#666666">[TEXT]</text>
</g>
<!-- env_ref&#45;&gt;env -->
<g id="edge1" class="edge">
<title>env_ref:env_id&#45;&gt;env:env_id</title>
<path fill="none" stroke="#000000" d="M178.8103,-576.9677C101.4857,-568.3087 174.5994,-455.7402 189,-367 193.9528,-336.4792 206.0472,-331.5208 211,-301 217.6565,-259.981 252.5556,-207.5 211,-207.5"/>
<polygon fill="#000000" stroke="#000000" points="179.0136,-576.9782 188.7652,-581.9939 184.0068,-577.2391 189,-577.5 189,-577.5 189,-577.5 184.0068,-577.2391 189.2348,-573.0061 179.0136,-576.9782 179.0136,-576.9782"/>
</g>
<!-- env_var -->
<g id="node3" class="node">
<title>env_var</title>
<polygon fill="#efefef" stroke="transparent" points="315,-252.5 315,-287.5 501,-287.5 501,-252.5 315,-252.5"/>
<polygon fill="none" stroke="#000000" points="315,-252.5 315,-287.5 501,-287.5 501,-252.5 315,-252.5"/>
<text text-anchor="start" x="339.826" y="-265.3" font-family="Arial Bold" font-size="18.00" fill="#000000">env_var</text>
<text text-anchor="start" x="403.843" y="-265.3" font-family="Arial" font-size="14.00" fill="#000000">    </text>
<text text-anchor="start" x="438.0478" y="-265.3" font-family="Arial" font-size="14.00" fill="#666666">[table]</text>
<polygon fill="none" stroke="#000000" points="315,-222.5 315,-252.5 501,-252.5 501,-222.5 315,-222.5"/>
<text text-anchor="start" x="321.6655" y="-233.9" font-family="Arial" font-size="14.00" fill="#000000">env_var_id    </text>
<text text-anchor="start" x="424.3331" y="-233.9" font-family="Arial" font-size="14.00" fill="#666666">[INTEGER]</text>
<polygon fill="none" stroke="#000000" points="315,-192.5 315,-222.5 501,-222.5 501,-192.5 315,-192.5"/>
<text text-anchor="start" x="322" y="-203.9" font-family="Arial" font-size="14.00" fill="#000000">env_id    </text>
<text text-anchor="start" x="397.4418" y="-203.9" font-family="Arial" font-size="14.00" fill="#666666">[INTEGER]</text>
<polygon fill="none" stroke="#000000" points="315,-162.5 315,-192.5 501,-192.5 501,-162.5 315,-162.5"/>
<text text-anchor="start" x="322" y="-173.9" font-family="Arial" font-size="14.00" fill="#000000">name    </text>
<text text-anchor="start" x="391.2132" y="-173.9" font-family="Arial" font-size="14.00" fill="#666666">[TEXT]</text>
<polygon fill="none" stroke="#000000" points="315,-132.5 315,-162.5 501,-162.5 501,-132.5 315,-132.5"/>
<text text-anchor="start" x="322" y="-143.9" font-family="Arial" font-size="14.00" fill="#000000">comment    </text>
<text text-anchor="start" x="413.7644" y="-143.9" font-family="Arial" font-size="14.00" fill="#666666">[TEXT]</text>
<polygon fill="none" stroke="#000000" points="315,-102.5 315,-132.5 501,-132.5 501,-102.5 315,-102.5"/>
<text text-anchor="start" x="322" y="-113.9" font-family="Arial" font-size="14.00" fill="#000000">create_time    </text>
<text text-anchor="start" x="429.3268" y="-113.9" font-family="Arial" font-size="14.00" fill="#666666">[TEXT]</text>
<polygon fill="none" stroke="#000000" points="315,-72.5 315,-102.5 501,-102.5 501,-72.5 315,-72.5"/>
<text text-anchor="start" x="322" y="-83.9" font-family="Arial" font-size="14.00" fill="#000000">update_time    </text>
<text text-anchor="start" x="433.2314" y="-83.9" font-family="Arial" font-size="14.00" fill="#666666">[TEXT]</text>
<polygon fill="none" stroke="#000000" points="315,-42.5 315,-72.5 501,-72.5 501,-42.5 315,-42.5"/>
<text text-anchor="start" x="322" y="-53.9" font-family="Arial" font-size="14.00" fill="#000000">value    </text>
<text text-anchor="start" x="389.6592" y="-53.9" font-family="Arial" font-size="14.00" fill="#666666">[TEXT]</text>
</g>
<!-- env_ref&#45;&gt;env_var -->
<g id="edge2" class="edge">
<title>env_ref:env_var_id&#45;&gt;env_var:env_var_id</title>
<path fill="none" stroke="#000000" d="M354.866,-424.8556C366.3005,-416.2118 352.6519,-388.1349 345,-367 337.9098,-347.4167 322.0902,-350.5833 315,-331 300.8534,-291.9265 273.4444,-237.5 315,-237.5"/>
<polygon fill="#000000" stroke="#000000" points="354.6591,-424.911 343.835,-423.1534 349.8295,-426.2055 345,-427.5 345,-427.5 345,-427.5 349.8295,-426.2055 346.165,-431.8466 354.6591,-424.911 354.6591,-424.911"/>
</g>
</g>
</svg>
