<?xml version="1.0" encoding="UTF-8" standalone="no"?>
<!DOCTYPE svg PUBLIC "-//W3C//DTD SVG 1.1//EN"
 "http://www.w3.org/Graphics/SVG/1.1/DTD/svg11.dtd">
<!-- Generated by graphviz version 2.40.1 (20161225.0304)
 -->
<!-- Title: env_var Pages: 1 -->
<svg width="282pt" height="1019pt"
 viewBox="0.00 0.00 281.83 1019.00" xmlns="http://www.w3.org/2000/svg" xmlns:xlink="http://www.w3.org/1999/xlink">
<g id="graph0" class="graph" transform="scale(1 1) rotate(0) translate(4 1015)">
<title>env_var</title>
<polygon fill="#ffffff" stroke="transparent" points="-4,4 -4,-1015 277.8271,-1015 277.8271,4 -4,4"/>
<!-- env_var -->
<g id="node1" class="node">
<title>env_var</title>
<polygon fill="#efefef" stroke="transparent" points="58,-562.5 58,-597.5 214,-597.5 214,-562.5 58,-562.5"/>
<polygon fill="none" stroke="#000000" points="58,-562.5 58,-597.5 214,-597.5 214,-562.5 58,-562.5"/>
<text text-anchor="start" x="67.826" y="-575.3" font-family="Arial Bold" font-size="18.00" fill="#000000">env_var</text>
<text text-anchor="start" x="131.843" y="-575.3" font-family="Arial" font-size="14.00" fill="#000000">    </text>
<text text-anchor="start" x="166.0478" y="-575.3" font-family="Arial" font-size="14.00" fill="#666666">[table]</text>
<polygon fill="none" stroke="#000000" points="58,-532.5 58,-562.5 214,-562.5 214,-532.5 58,-532.5"/>
<text text-anchor="start" x="64.8226" y="-543.9" font-family="Arial" font-size="14.00" fill="#000000">env_var_id </text>
<text text-anchor="start" x="137.176" y="-543.9" font-family="Arial" font-size="14.00" fill="#666666">[INTEGER]</text>
<polygon fill="none" stroke="#000000" points="58,-502.5 58,-532.5 214,-532.5 214,-502.5 58,-502.5"/>
<text text-anchor="start" x="65" y="-513.9" font-family="Arial" font-size="14.00" fill="#000000">env_id </text>
<text text-anchor="start" x="110.1276" y="-513.9" font-family="Arial" font-size="14.00" fill="#666666">[INTEGER]</text>
<polygon fill="none" stroke="#000000" points="58,-472.5 58,-502.5 214,-502.5 214,-472.5 58,-472.5"/>
<text text-anchor="start" x="65" y="-483.9" font-family="Arial" font-size="14.00" fill="#000000">name </text>
<text text-anchor="start" x="103.899" y="-483.9" font-family="Arial" font-size="14.00" fill="#666666">[TEXT]</text>
<polygon fill="none" stroke="#000000" points="58,-442.5 58,-472.5 214,-472.5 214,-442.5 58,-442.5"/>
<text text-anchor="start" x="65" y="-453.9" font-family="Arial" font-size="14.00" fill="#000000">comment </text>
<text text-anchor="start" x="126.4502" y="-453.9" font-family="Arial" font-size="14.00" fill="#666666">[TEXT]</text>
<polygon fill="none" stroke="#000000" points="58,-412.5 58,-442.5 214,-442.5 214,-412.5 58,-412.5"/>
<text text-anchor="start" x="65" y="-423.9" font-family="Arial" font-size="14.00" fill="#000000">create_time </text>
<text text-anchor="start" x="142.0126" y="-423.9" font-family="Arial" font-size="14.00" fill="#666666">[TEXT]</text>
<polygon fill="none" stroke="#000000" points="58,-382.5 58,-412.5 214,-412.5 214,-382.5 58,-382.5"/>
<text text-anchor="start" x="65" y="-393.9" font-family="Arial" font-size="14.00" fill="#000000">update_time </text>
<text text-anchor="start" x="145.9172" y="-393.9" font-family="Arial" font-size="14.00" fill="#666666">[TEXT]</text>
<polygon fill="none" stroke="#000000" points="58,-352.5 58,-382.5 214,-382.5 214,-352.5 58,-352.5"/>
<text text-anchor="start" x="65" y="-363.9" font-family="Arial" font-size="14.00" fill="#000000">value </text>
<text text-anchor="start" x="102.345" y="-363.9" font-family="Arial" font-size="14.00" fill="#666666">[TEXT]</text>
<polygon fill="none" stroke="#000000" stroke-width="3" points="56.5,-351.5 56.5,-599.5 215.5,-599.5 215.5,-351.5 56.5,-351.5"/>
</g>
<!-- env -->
<g id="node3" class="node">
<title>env</title>
<polygon fill="#efefef" stroke="transparent" points="52,-192.5 52,-227.5 220,-227.5 220,-192.5 52,-192.5"/>
<polygon fill="none" stroke="#000000" points="52,-192.5 52,-227.5 220,-227.5 220,-192.5 52,-192.5"/>
<text text-anchor="start" x="85.3283" y="-205.3" font-family="Arial Bold" font-size="18.00" fill="#000000">env</text>
<text text-anchor="start" x="114.3407" y="-205.3" font-family="Arial" font-size="14.00" fill="#000000">    </text>
<text text-anchor="start" x="148.5455" y="-205.3" font-family="Arial" font-size="14.00" fill="#666666">[table]</text>
<polygon fill="none" stroke="#000000" points="52,-162.5 52,-192.5 220,-192.5 220,-162.5 52,-162.5"/>
<text text-anchor="start" x="59" y="-173.9" font-family="Arial" font-size="14.00" fill="#000000">env_id    </text>
<text text-anchor="start" x="134.4418" y="-173.9" font-family="Arial" font-size="14.00" fill="#666666">[INTEGER]</text>
<polygon fill="none" stroke="#000000" points="52,-132.5 52,-162.5 220,-162.5 220,-132.5 52,-132.5"/>
<text text-anchor="start" x="59" y="-143.9" font-family="Arial" font-size="14.00" fill="#000000">name    </text>
<text text-anchor="start" x="128.2132" y="-143.9" font-family="Arial" font-size="14.00" fill="#666666">[TEXT]</text>
<polygon fill="none" stroke="#000000" points="52,-102.5 52,-132.5 220,-132.5 220,-102.5 52,-102.5"/>
<text text-anchor="start" x="59" y="-113.9" font-family="Arial" font-size="14.00" fill="#000000">comment    </text>
<text text-anchor="start" x="150.7644" y="-113.9" font-family="Arial" font-size="14.00" fill="#666666">[TEXT]</text>
<polygon fill="none" stroke="#000000" points="52,-72.5 52,-102.5 220,-102.5 220,-72.5 52,-72.5"/>
<text text-anchor="start" x="59" y="-83.9" font-family="Arial" font-size="14.00" fill="#000000">create_time    </text>
<text text-anchor="start" x="166.3268" y="-83.9" font-family="Arial" font-size="14.00" fill="#666666">[TEXT]</text>
<polygon fill="none" stroke="#000000" points="52,-42.5 52,-72.5 220,-72.5 220,-42.5 52,-42.5"/>
<text text-anchor="start" x="58.6045" y="-53.9" font-family="Arial" font-size="14.00" fill="#000000">update_time    </text>
<text text-anchor="start" x="169.8359" y="-53.9" font-family="Arial" font-size="14.00" fill="#666666">[TEXT]</text>
</g>
<!-- env_var&#45;&gt;env -->
<g id="edge2" class="edge">
<title>env_var:env_id&#45;&gt;env:env_id</title>
<path fill="none" stroke="#000000" d="M224.1668,-515.3288C289.9506,-486.3721 292.0251,-177.5 220,-177.5"/>
<polygon fill="#000000" stroke="#000000" points="223.7795,-515.4115 213.0602,-513.0992 218.8897,-516.4557 214,-517.5 214,-517.5 214,-517.5 218.8897,-516.4557 214.9398,-521.9008 223.7795,-515.4115 223.7795,-515.4115"/>
</g>
<!-- env_ref -->
<g id="node2" class="node">
<title>env_ref</title>
<polygon fill="#efefef" stroke="transparent" points="43,-932.5 43,-967.5 229,-967.5 229,-932.5 43,-932.5"/>
<polygon fill="none" stroke="#000000" points="43,-932.5 43,-967.5 229,-967.5 229,-932.5 43,-932.5"/>
<text text-anchor="start" x="69.8249" y="-945.3" font-family="Arial Bold" font-size="18.00" fill="#000000">env_ref</text>
<text text-anchor="start" x="129.8441" y="-945.3" font-family="Arial" font-size="14.00" fill="#000000">    </text>
<text text-anchor="start" x="164.0489" y="-945.3" font-family="Arial" font-size="14.00" fill="#666666">[table]</text>
<polygon fill="none" stroke="#000000" points="43,-902.5 43,-932.5 229,-932.5 229,-902.5 43,-902.5"/>
<text text-anchor="start" x="50" y="-913.9" font-family="Arial" font-size="14.00" fill="#000000">env_ref_id    </text>
<text text-anchor="start" x="149.5582" y="-913.9" font-family="Arial" font-size="14.00" fill="#666666">[INTEGER]</text>
<polygon fill="none" stroke="#000000" points="43,-872.5 43,-902.5 229,-902.5 229,-872.5 43,-872.5"/>
<text text-anchor="start" x="50" y="-883.9" font-family="Arial" font-size="14.00" fill="#000000">env_id    </text>
<text text-anchor="start" x="125.4418" y="-883.9" font-family="Arial" font-size="14.00" fill="#666666">[INTEGER]</text>
<polygon fill="none" stroke="#000000" points="43,-842.5 43,-872.5 229,-872.5 229,-842.5 43,-842.5"/>
<text text-anchor="start" x="50" y="-853.9" font-family="Arial" font-size="14.00" fill="#000000">name    </text>
<text text-anchor="start" x="119.2132" y="-853.9" font-family="Arial" font-size="14.00" fill="#666666">[TEXT]</text>
<polygon fill="none" stroke="#000000" points="43,-812.5 43,-842.5 229,-842.5 229,-812.5 43,-812.5"/>
<text text-anchor="start" x="50" y="-823.9" font-family="Arial" font-size="14.00" fill="#000000">comment    </text>
<text text-anchor="start" x="141.7644" y="-823.9" font-family="Arial" font-size="14.00" fill="#666666">[TEXT]</text>
<polygon fill="none" stroke="#000000" points="43,-782.5 43,-812.5 229,-812.5 229,-782.5 43,-782.5"/>
<text text-anchor="start" x="50" y="-793.9" font-family="Arial" font-size="14.00" fill="#000000">create_time    </text>
<text text-anchor="start" x="157.3268" y="-793.9" font-family="Arial" font-size="14.00" fill="#666666">[TEXT]</text>
<polygon fill="none" stroke="#000000" points="43,-752.5 43,-782.5 229,-782.5 229,-752.5 43,-752.5"/>
<text text-anchor="start" x="50" y="-763.9" font-family="Arial" font-size="14.00" fill="#000000">update_time    </text>
<text text-anchor="start" x="161.2314" y="-763.9" font-family="Arial" font-size="14.00" fill="#666666">[TEXT]</text>
<polygon fill="none" stroke="#000000" points="43,-722.5 43,-752.5 229,-752.5 229,-722.5 43,-722.5"/>
<text text-anchor="start" x="49.6655" y="-733.9" font-family="Arial" font-size="14.00" fill="#000000">env_var_id    </text>
<text text-anchor="start" x="152.3331" y="-733.9" font-family="Arial" font-size="14.00" fill="#666666">[INTEGER]</text>
</g>
<!-- env_ref&#45;&gt;env_var -->
<g id="edge1" class="edge">
<title>env_ref:env_var_id&#45;&gt;env_var:env_var_id</title>
<path fill="none" stroke="#000000" d="M137.0374,-712.1084C145.0108,-675.4643 196.7157,-685.9173 214,-644 230.3495,-604.3497 256.8889,-547.5 214,-547.5"/>
<polygon fill="#000000" stroke="#000000" points="136.9934,-712.5495 131.5223,-722.053 136.4967,-717.5247 136,-722.5 136,-722.5 136,-722.5 136.4967,-717.5247 140.4777,-722.947 136.9934,-712.5495 136.9934,-712.5495"/>
</g>
</g>
</svg>
