<?xml version="1.0" encoding="UTF-8" standalone="no"?>
<!DOCTYPE svg PUBLIC "-//W3C//DTD SVG 1.1//EN"
 "http://www.w3.org/Graphics/SVG/1.1/DTD/svg11.dtd">
<!-- Generated by graphviz version 2.40.1 (20161225.0304)
 -->
<!-- Title: Envelope Database Schema Pages: 1 -->
<svg width="1979pt" height="1103pt"
 viewBox="0.00 0.00 1978.50 1103.00" xmlns="http://www.w3.org/2000/svg" xmlns:xlink="http://www.w3.org/1999/xlink">
<g id="graph0" class="graph" transform="scale(1 1) rotate(0) translate(4 1099)">
<title>Envelope Database Schema</title>
<polygon fill="#ffffff" stroke="transparent" points="-4,4 -4,-1099 1974.5,-1099 1974.5,4 -4,4"/>
<!-- migration_v2 -->
<g id="node1" class="node">
<title>migration_v2</title>
<polygon fill="#efefef" stroke="transparent" points="43,-911.5 43,-946.5 259,-946.5 259,-911.5 43,-911.5"/>
<polygon fill="none" stroke="#000000" points="43,-911.5 43,-946.5 259,-946.5 259,-911.5 43,-911.5"/>
<text text-anchor="start" x="63.3284" y="-924.3" font-family="Arial Bold" font-size="18.00" fill="#000000">migration_v2</text>
<text text-anchor="start" x="166.3406" y="-924.3" font-family="Arial" font-size="14.00" fill="#000000">    </text>
<text text-anchor="start" x="200.5454" y="-924.3" font-family="Arial" font-size="14.00" fill="#666666">[table]</text>
<polygon fill="none" stroke="#000000" points="43,-881.5 43,-911.5 259,-911.5 259,-881.5 43,-881.5"/>
<text text-anchor="start" x="49.5007" y="-892.9" font-family="Arial" font-size="14.00" fill="#000000">migration_v2_id    </text>
<text text-anchor="start" x="182.4979" y="-892.9" font-family="Arial" font-size="14.00" fill="#666666">[INTEGER]</text>
<polygon fill="none" stroke="#000000" points="43,-851.5 43,-881.5 259,-881.5 259,-851.5 43,-851.5"/>
<text text-anchor="start" x="50" y="-862.9" font-family="Arial" font-size="14.00" fill="#000000">file_name    </text>
<text text-anchor="start" x="144.8822" y="-862.9" font-family="Arial" font-size="14.00" fill="#666666">[TEXT]</text>
<polygon fill="none" stroke="#000000" points="43,-821.5 43,-851.5 259,-851.5 259,-821.5 43,-821.5"/>
<text text-anchor="start" x="50" y="-832.9" font-family="Arial" font-size="14.00" fill="#000000">migrate_time    </text>
<text text-anchor="start" x="165.094" y="-832.9" font-family="Arial" font-size="14.00" fill="#666666">[TEXT]</text>
</g>
<!-- env -->
<g id="node2" class="node">
<title>env</title>
<polygon fill="#efefef" stroke="transparent" points="372,-192.5 372,-227.5 540,-227.5 540,-192.5 372,-192.5"/>
<polygon fill="none" stroke="#000000" points="372,-192.5 372,-227.5 540,-227.5 540,-192.5 372,-192.5"/>
<text text-anchor="start" x="405.3283" y="-205.3" font-family="Arial Bold" font-size="18.00" fill="#000000">env</text>
<text text-anchor="start" x="434.3407" y="-205.3" font-family="Arial" font-size="14.00" fill="#000000">    </text>
<text text-anchor="start" x="468.5455" y="-205.3" font-family="Arial" font-size="14.00" fill="#666666">[table]</text>
<polygon fill="none" stroke="#000000" points="372,-162.5 372,-192.5 540,-192.5 540,-162.5 372,-162.5"/>
<text text-anchor="start" x="379" y="-173.9" font-family="Arial" font-size="14.00" fill="#000000">env_id    </text>
<text text-anchor="start" x="454.4418" y="-173.9" font-family="Arial" font-size="14.00" fill="#666666">[INTEGER]</text>
<polygon fill="none" stroke="#000000" points="372,-132.5 372,-162.5 540,-162.5 540,-132.5 372,-132.5"/>
<text text-anchor="start" x="379" y="-143.9" font-family="Arial" font-size="14.00" fill="#000000">name    </text>
<text text-anchor="start" x="448.2132" y="-143.9" font-family="Arial" font-size="14.00" fill="#666666">[TEXT]</text>
<polygon fill="none" stroke="#000000" points="372,-102.5 372,-132.5 540,-132.5 540,-102.5 372,-102.5"/>
<text text-anchor="start" x="379" y="-113.9" font-family="Arial" font-size="14.00" fill="#000000">comment    </text>
<text text-anchor="start" x="470.7644" y="-113.9" font-family="Arial" font-size="14.00" fill="#666666">[TEXT]</text>
<polygon fill="none" stroke="#000000" points="372,-72.5 372,-102.5 540,-102.5 540,-72.5 372,-72.5"/>
<text text-anchor="start" x="379" y="-83.9" font-family="Arial" font-size="14.00" fill="#000000">create_time    </text>
<text text-anchor="start" x="486.3268" y="-83.9" font-family="Arial" font-size="14.00" fill="#666666">[TEXT]</text>
<polygon fill="none" stroke="#000000" points="372,-42.5 372,-72.5 540,-72.5 540,-42.5 372,-42.5"/>
<text text-anchor="start" x="378.6045" y="-53.9" font-family="Arial" font-size="14.00" fill="#000000">update_time    </text>
<text text-anchor="start" x="489.8359" y="-53.9" font-family="Arial" font-size="14.00" fill="#666666">[TEXT]</text>
</g>
<!-- env_var -->
<g id="node3" class="node">
<title>env_var</title>
<polygon fill="#efefef" stroke="transparent" points="445,-559.5 445,-594.5 631,-594.5 631,-559.5 445,-559.5"/>
<polygon fill="none" stroke="#000000" points="445,-559.5 445,-594.5 631,-594.5 631,-559.5 445,-559.5"/>
<text text-anchor="start" x="469.826" y="-572.3" font-family="Arial Bold" font-size="18.00" fill="#000000">env_var</text>
<text text-anchor="start" x="533.843" y="-572.3" font-family="Arial" font-size="14.00" fill="#000000">    </text>
<text text-anchor="start" x="568.0478" y="-572.3" font-family="Arial" font-size="14.00" fill="#666666">[table]</text>
<polygon fill="none" stroke="#000000" points="445,-529.5 445,-559.5 631,-559.5 631,-529.5 445,-529.5"/>
<text text-anchor="start" x="451.6655" y="-540.9" font-family="Arial" font-size="14.00" fill="#000000">env_var_id    </text>
<text text-anchor="start" x="554.3331" y="-540.9" font-family="Arial" font-size="14.00" fill="#666666">[INTEGER]</text>
<polygon fill="none" stroke="#000000" points="445,-499.5 445,-529.5 631,-529.5 631,-499.5 445,-499.5"/>
<text text-anchor="start" x="452" y="-510.9" font-family="Arial" font-size="14.00" fill="#000000">env_id    </text>
<text text-anchor="start" x="527.4418" y="-510.9" font-family="Arial" font-size="14.00" fill="#666666">[INTEGER]</text>
<polygon fill="none" stroke="#000000" points="445,-469.5 445,-499.5 631,-499.5 631,-469.5 445,-469.5"/>
<text text-anchor="start" x="452" y="-480.9" font-family="Arial" font-size="14.00" fill="#000000">name    </text>
<text text-anchor="start" x="521.2132" y="-480.9" font-family="Arial" font-size="14.00" fill="#666666">[TEXT]</text>
<polygon fill="none" stroke="#000000" points="445,-439.5 445,-469.5 631,-469.5 631,-439.5 445,-439.5"/>
<text text-anchor="start" x="452" y="-450.9" font-family="Arial" font-size="14.00" fill="#000000">comment    </text>
<text text-anchor="start" x="543.7644" y="-450.9" font-family="Arial" font-size="14.00" fill="#666666">[TEXT]</text>
<polygon fill="none" stroke="#000000" points="445,-409.5 445,-439.5 631,-439.5 631,-409.5 445,-409.5"/>
<text text-anchor="start" x="452" y="-420.9" font-family="Arial" font-size="14.00" fill="#000000">create_time    </text>
<text text-anchor="start" x="559.3268" y="-420.9" font-family="Arial" font-size="14.00" fill="#666666">[TEXT]</text>
<polygon fill="none" stroke="#000000" points="445,-379.5 445,-409.5 631,-409.5 631,-379.5 445,-379.5"/>
<text text-anchor="start" x="452" y="-390.9" font-family="Arial" font-size="14.00" fill="#000000">update_time    </text>
<text text-anchor="start" x="563.2314" y="-390.9" font-family="Arial" font-size="14.00" fill="#666666">[TEXT]</text>
<polygon fill="none" stroke="#000000" points="445,-349.5 445,-379.5 631,-379.5 631,-349.5 445,-349.5"/>
<text text-anchor="start" x="452" y="-360.9" font-family="Arial" font-size="14.00" fill="#000000">value    </text>
<text text-anchor="start" x="519.6592" y="-360.9" font-family="Arial" font-size="14.00" fill="#666666">[TEXT]</text>
</g>
<!-- env_var&#45;&gt;env -->
<g id="edge1" class="edge">
<title>env_var:env_id&#45;&gt;env:env_id</title>
<path fill="none" stroke="#000000" d="M434.79,-513.9087C355.9082,-504.303 394.6486,-379.926 445,-307 470.6543,-269.8439 514.3457,-308.1561 540,-271 563.6108,-236.8036 581.5556,-177.5 540,-177.5"/>
<polygon fill="#000000" stroke="#000000" points="435.0167,-513.9217 444.7398,-518.9925 440.0084,-514.2109 445,-514.5 445,-514.5 445,-514.5 440.0084,-514.2109 445.2602,-510.0075 435.0167,-513.9217 435.0167,-513.9217"/>
</g>
<!-- env_ref -->
<g id="node4" class="node">
<title>env_ref</title>
<polygon fill="#efefef" stroke="transparent" points="363,-971.5 363,-1006.5 549,-1006.5 549,-971.5 363,-971.5"/>
<polygon fill="none" stroke="#000000" points="363,-971.5 363,-1006.5 549,-1006.5 549,-971.5 363,-971.5"/>
<text text-anchor="start" x="389.8249" y="-984.3" font-family="Arial Bold" font-size="18.00" fill="#000000">env_ref</text>
<text text-anchor="start" x="449.8441" y="-984.3" font-family="Arial" font-size="14.00" fill="#000000">    </text>
<text text-anchor="start" x="484.0489" y="-984.3" font-family="Arial" font-size="14.00" fill="#666666">[table]</text>
<polygon fill="none" stroke="#000000" points="363,-941.5 363,-971.5 549,-971.5 549,-941.5 363,-941.5"/>
<text text-anchor="start" x="370" y="-952.9" font-family="Arial" font-size="14.00" fill="#000000">env_ref_id    </text>
<text text-anchor="start" x="469.5582" y="-952.9" font-family="Arial" font-size="14.00" fill="#666666">[INTEGER]</text>
<polygon fill="none" stroke="#000000" points="363,-911.5 363,-941.5 549,-941.5 549,-911.5 363,-911.5"/>
<text text-anchor="start" x="370" y="-922.9" font-family="Arial" font-size="14.00" fill="#000000">env_id    </text>
<text text-anchor="start" x="445.4418" y="-922.9" font-family="Arial" font-size="14.00" fill="#666666">[INTEGER]</text>
<polygon fill="none" stroke="#000000" points="363,-881.5 363,-911.5 549,-911.5 549,-881.5 363,-881.5"/>
<text text-anchor="start" x="370" y="-892.9" font-family="Arial" font-size="14.00" fill="#000000">name    </text>
<text text-anchor="start" x="439.2132" y="-892.9" font-family="Arial" font-size="14.00" fill="#666666">[TEXT]</text>
<polygon fill="none" stroke="#000000" points="363,-851.5 363,-881.5 549,-881.5 549,-851.5 363,-851.5"/>
<text text-anchor="start" x="370" y="-862.9" font-family="Arial" font-size="14.00" fill="#000000">comment    </text>
<text text-anchor="start" x="461.7644" y="-862.9" font-family="Arial" font-size="14.00" fill="#666666">[TEXT]</text>
<polygon fill="none" stroke="#000000" points="363,-821.5 363,-851.5 549,-851.5 549,-821.5 363,-821.5"/>
<text text-anchor="start" x="370" y="-832.9" font-family="Arial" font-size="14.00" fill="#000000">create_time    </text>
<text text-anchor="start" x="477.3268" y="-832.9" font-family="Arial" font-size="14.00" fill="#666666">[TEXT]</text>
<polygon fill="none" stroke="#000000" points="363,-791.5 363,-821.5 549,-821.5 549,-791.5 363,-791.5"/>
<text text-anchor="start" x="370" y="-802.9" font-family="Arial" font-size="14.00" fill="#000000">update_time    </text>
<text text-anchor="start" x="481.2314" y="-802.9" font-family="Arial" font-size="14.00" fill="#666666">[TEXT]</text>
<polygon fill="none" stroke="#000000" points="363,-761.5 363,-791.5 549,-791.5 549,-761.5 363,-761.5"/>
<text text-anchor="start" x="369.6655" y="-772.9" font-family="Arial" font-size="14.00" fill="#000000">env_var_id    </text>
<text text-anchor="start" x="472.3331" y="-772.9" font-family="Arial" font-size="14.00" fill="#666666">[INTEGER]</text>
</g>
<!-- env_ref&#45;&gt;env -->
<g id="edge3" class="edge">
<title>env_ref:env_id&#45;&gt;env:env_id</title>
<path fill="none" stroke="#000000" d="M356.2027,-919.0869C322.5525,-841.298 332.8242,-177.5 372,-177.5"/>
<polygon fill="#000000" stroke="#000000" points="356.2417,-919.1294 359.6832,-929.5412 359.6208,-922.8147 363,-926.5 363,-926.5 363,-926.5 359.6208,-922.8147 366.3168,-923.4588 356.2417,-919.1294 356.2417,-919.1294"/>
</g>
<!-- env_ref&#45;&gt;env_var -->
<g id="edge2" class="edge">
<title>env_ref:env_var_id&#45;&gt;env_var:env_var_id</title>
<path fill="none" stroke="#000000" d="M455.6147,-751.2329C448.6889,-656.6127 351.8267,-544.5 445,-544.5"/>
<polygon fill="#000000" stroke="#000000" points="455.6249,-751.507 451.5032,-761.6688 455.8124,-756.5035 456,-761.5 456,-761.5 456,-761.5 455.8124,-756.5035 460.4968,-761.3312 455.6249,-751.507 455.6249,-751.507"/>
</g>
<!-- vw_env_env_ref_env_var_unique_name -->
<g id="node5" class="node">
<title>vw_env_env_ref_env_var_unique_name</title>
<polygon fill="#efefef" stroke="transparent" points="653,-896.5 653,-931.5 1061,-931.5 1061,-896.5 653,-896.5"/>
<polygon fill="none" stroke="#000000" points="653,-896.5 653,-931.5 1061,-931.5 1061,-896.5 653,-896.5"/>
<text text-anchor="start" x="659.9542" y="-909.3" font-family="Arial Bold" font-size="18.00" fill="#000000">vw_env_env_ref_env_var_unique_name</text>
<text text-anchor="start" x="984.064" y="-909.3" font-family="Arial" font-size="14.00" fill="#000000">    </text>
<text text-anchor="start" x="1018.2688" y="-909.3" font-family="Arial" font-size="14.00" fill="#666666">[view]</text>
<polygon fill="none" stroke="#000000" points="653,-866.5 653,-896.5 1061,-896.5 1061,-866.5 653,-866.5"/>
<text text-anchor="start" x="660" y="-877.9" font-family="Arial" font-size="14.00" fill="#000000">env_id    </text>
<text text-anchor="start" x="735.4418" y="-877.9" font-family="Arial" font-size="14.00" fill="#666666">[INTEGER]</text>
<polygon fill="none" stroke="#000000" points="653,-836.5 653,-866.5 1061,-866.5 1061,-836.5 653,-836.5"/>
<text text-anchor="start" x="660" y="-847.9" font-family="Arial" font-size="14.00" fill="#000000">name    </text>
<text text-anchor="start" x="729.2132" y="-847.9" font-family="Arial" font-size="14.00" fill="#666666">[TEXT]</text>
</g>
<!-- vw_env_ref_referenced_name -->
<g id="node6" class="node">
<title>vw_env_ref_referenced_name</title>
<polygon fill="#efefef" stroke="transparent" points="1166,-1016.5 1166,-1051.5 1493,-1051.5 1493,-1016.5 1166,-1016.5"/>
<polygon fill="none" stroke="#000000" points="1166,-1016.5 1166,-1051.5 1493,-1051.5 1493,-1016.5 1166,-1016.5"/>
<text text-anchor="start" x="1172.9758" y="-1029.3" font-family="Arial Bold" font-size="18.00" fill="#000000">vw_env_ref_referenced_name</text>
<text text-anchor="start" x="1416.0424" y="-1029.3" font-family="Arial" font-size="14.00" fill="#000000">    </text>
<text text-anchor="start" x="1450.2472" y="-1029.3" font-family="Arial" font-size="14.00" fill="#666666">[view]</text>
<polygon fill="none" stroke="#000000" points="1166,-986.5 1166,-1016.5 1493,-1016.5 1493,-986.5 1166,-986.5"/>
<text text-anchor="start" x="1173" y="-997.9" font-family="Arial" font-size="14.00" fill="#000000">env_ref_id    </text>
<text text-anchor="start" x="1272.5582" y="-997.9" font-family="Arial" font-size="14.00" fill="#666666">[INTEGER]</text>
<polygon fill="none" stroke="#000000" points="1166,-956.5 1166,-986.5 1493,-986.5 1493,-956.5 1166,-956.5"/>
<text text-anchor="start" x="1173" y="-967.9" font-family="Arial" font-size="14.00" fill="#000000">env_id    </text>
<text text-anchor="start" x="1248.4418" y="-967.9" font-family="Arial" font-size="14.00" fill="#666666">[INTEGER]</text>
<polygon fill="none" stroke="#000000" points="1166,-926.5 1166,-956.5 1493,-956.5 1493,-926.5 1166,-926.5"/>
<text text-anchor="start" x="1173" y="-937.9" font-family="Arial" font-size="14.00" fill="#000000">env_name    </text>
<text text-anchor="start" x="1272.561" y="-937.9" font-family="Arial" font-size="14.00" fill="#666666">[TEXT]</text>
<polygon fill="none" stroke="#000000" points="1166,-896.5 1166,-926.5 1493,-926.5 1493,-896.5 1166,-896.5"/>
<text text-anchor="start" x="1173" y="-907.9" font-family="Arial" font-size="14.00" fill="#000000">name    </text>
<text text-anchor="start" x="1242.2132" y="-907.9" font-family="Arial" font-size="14.00" fill="#666666">[TEXT]</text>
<polygon fill="none" stroke="#000000" points="1166,-866.5 1166,-896.5 1493,-896.5 1493,-866.5 1166,-866.5"/>
<text text-anchor="start" x="1173" y="-877.9" font-family="Arial" font-size="14.00" fill="#000000">env_var_id    </text>
<text text-anchor="start" x="1275.6676" y="-877.9" font-family="Arial" font-size="14.00" fill="#666666">[INTEGER]</text>
<polygon fill="none" stroke="#000000" points="1166,-836.5 1166,-866.5 1493,-866.5 1493,-836.5 1166,-836.5"/>
<text text-anchor="start" x="1173" y="-847.9" font-family="Arial" font-size="14.00" fill="#000000">ref_var_name    </text>
<text text-anchor="start" x="1293.5554" y="-847.9" font-family="Arial" font-size="14.00" fill="#666666">[TEXT]</text>
<polygon fill="none" stroke="#000000" points="1166,-806.5 1166,-836.5 1493,-836.5 1493,-806.5 1166,-806.5"/>
<text text-anchor="start" x="1173" y="-817.9" font-family="Arial" font-size="14.00" fill="#000000">ref_env_name    </text>
<text text-anchor="start" x="1296.6774" y="-817.9" font-family="Arial" font-size="14.00" fill="#666666">[TEXT]</text>
<polygon fill="none" stroke="#000000" points="1166,-776.5 1166,-806.5 1493,-806.5 1493,-776.5 1166,-776.5"/>
<text text-anchor="start" x="1173" y="-787.9" font-family="Arial" font-size="14.00" fill="#000000">comment    </text>
<text text-anchor="start" x="1264.7644" y="-787.9" font-family="Arial" font-size="14.00" fill="#666666">[TEXT]</text>
<polygon fill="none" stroke="#000000" points="1166,-746.5 1166,-776.5 1493,-776.5 1493,-746.5 1166,-746.5"/>
<text text-anchor="start" x="1173" y="-757.9" font-family="Arial" font-size="14.00" fill="#000000">create_time    </text>
<text text-anchor="start" x="1280.3268" y="-757.9" font-family="Arial" font-size="14.00" fill="#666666">[TEXT]</text>
<polygon fill="none" stroke="#000000" points="1166,-716.5 1166,-746.5 1493,-746.5 1493,-716.5 1166,-716.5"/>
<text text-anchor="start" x="1173" y="-727.9" font-family="Arial" font-size="14.00" fill="#000000">update_time    </text>
<text text-anchor="start" x="1284.2314" y="-727.9" font-family="Arial" font-size="14.00" fill="#666666">[TEXT]</text>
</g>
<!-- vw_env_var_referenced_name -->
<g id="node7" class="node">
<title>vw_env_var_referenced_name</title>
<polygon fill="#efefef" stroke="transparent" points="1597,-986.5 1597,-1021.5 1928,-1021.5 1928,-986.5 1597,-986.5"/>
<polygon fill="none" stroke="#000000" points="1597,-986.5 1597,-1021.5 1928,-1021.5 1928,-986.5 1597,-986.5"/>
<text text-anchor="start" x="1603.9769" y="-999.3" font-family="Arial Bold" font-size="18.00" fill="#000000">vw_env_var_referenced_name</text>
<text text-anchor="start" x="1851.0413" y="-999.3" font-family="Arial" font-size="14.00" fill="#000000">    </text>
<text text-anchor="start" x="1885.2461" y="-999.3" font-family="Arial" font-size="14.00" fill="#666666">[view]</text>
<polygon fill="none" stroke="#000000" points="1597,-956.5 1597,-986.5 1928,-986.5 1928,-956.5 1597,-956.5"/>
<text text-anchor="start" x="1604" y="-967.9" font-family="Arial" font-size="14.00" fill="#000000">env_var_id    </text>
<text text-anchor="start" x="1706.6676" y="-967.9" font-family="Arial" font-size="14.00" fill="#666666">[INTEGER]</text>
<polygon fill="none" stroke="#000000" points="1597,-926.5 1597,-956.5 1928,-956.5 1928,-926.5 1597,-926.5"/>
<text text-anchor="start" x="1604" y="-937.9" font-family="Arial" font-size="14.00" fill="#000000">env_id    </text>
<text text-anchor="start" x="1679.4418" y="-937.9" font-family="Arial" font-size="14.00" fill="#666666">[INTEGER]</text>
<polygon fill="none" stroke="#000000" points="1597,-896.5 1597,-926.5 1928,-926.5 1928,-896.5 1597,-896.5"/>
<text text-anchor="start" x="1604" y="-907.9" font-family="Arial" font-size="14.00" fill="#000000">env_name    </text>
<text text-anchor="start" x="1703.561" y="-907.9" font-family="Arial" font-size="14.00" fill="#666666">[TEXT]</text>
<polygon fill="none" stroke="#000000" points="1597,-866.5 1597,-896.5 1928,-896.5 1928,-866.5 1597,-866.5"/>
<text text-anchor="start" x="1604" y="-877.9" font-family="Arial" font-size="14.00" fill="#000000">name    </text>
<text text-anchor="start" x="1673.2132" y="-877.9" font-family="Arial" font-size="14.00" fill="#666666">[TEXT]</text>
<polygon fill="none" stroke="#000000" points="1597,-836.5 1597,-866.5 1928,-866.5 1928,-836.5 1597,-836.5"/>
<text text-anchor="start" x="1604" y="-847.9" font-family="Arial" font-size="14.00" fill="#000000">value    </text>
<text text-anchor="start" x="1671.6592" y="-847.9" font-family="Arial" font-size="14.00" fill="#666666">[TEXT]</text>
<polygon fill="none" stroke="#000000" points="1597,-806.5 1597,-836.5 1928,-836.5 1928,-806.5 1597,-806.5"/>
<text text-anchor="start" x="1604" y="-817.9" font-family="Arial" font-size="14.00" fill="#000000">comment    </text>
<text text-anchor="start" x="1695.7644" y="-817.9" font-family="Arial" font-size="14.00" fill="#666666">[TEXT]</text>
<polygon fill="none" stroke="#000000" points="1597,-776.5 1597,-806.5 1928,-806.5 1928,-776.5 1597,-776.5"/>
<text text-anchor="start" x="1604" y="-787.9" font-family="Arial" font-size="14.00" fill="#000000">create_time    </text>
<text text-anchor="start" x="1711.3268" y="-787.9" font-family="Arial" font-size="14.00" fill="#666666">[TEXT]</text>
<polygon fill="none" stroke="#000000" points="1597,-746.5 1597,-776.5 1928,-776.5 1928,-746.5 1597,-746.5"/>
<text text-anchor="start" x="1604" y="-757.9" font-family="Arial" font-size="14.00" fill="#000000">update_time    </text>
<text text-anchor="start" x="1715.2314" y="-757.9" font-family="Arial" font-size="14.00" fill="#666666">[TEXT]</text>
</g>
</g>
</svg>
