<?xml version="1.0" encoding="UTF-8" standalone="no"?>
<!DOCTYPE svg PUBLIC "-//W3C//DTD SVG 1.1//EN"
 "http://www.w3.org/Graphics/SVG/1.1/DTD/svg11.dtd">
<!-- Generated by graphviz version 2.40.1 (20161225.0304)
 -->
<!-- Title: Envelope Database Schema Pages: 1 -->
<svg width="1764pt" height="1103pt"
 viewBox="0.00 0.00 1763.50 1103.00" xmlns="http://www.w3.org/2000/svg" xmlns:xlink="http://www.w3.org/1999/xlink">
<g id="graph0" class="graph" transform="scale(1 1) rotate(0) translate(4 1099)">
<title>Envelope Database Schema</title>
<polygon fill="#ffffff" stroke="transparent" points="-4,4 -4,-1099 1759.5,-1099 1759.5,4 -4,4"/>
<!-- migration_v2 -->
<g id="node1" class="node">
<title>migration_v2</title>
<polygon fill="#efefef" stroke="transparent" points="43,-911.5 43,-946.5 259,-946.5 259,-911.5 43,-911.5"/>
<polygon fill="none" stroke="#000000" points="43,-911.5 43,-946.5 259,-946.5 259,-911.5 43,-911.5"/>
<text text-anchor="start" x="63.3284" y="-924.3" font-family="Arial Bold" font-size="18.00" fill="#000000">migration_v2</text>
<text text-anchor="start" x="166.3406" y="-924.3" font-family="Arial" font-size="14.00" fill="#000000">    </text>
<text text-anchor="start" x="200.5454" y="-924.3" font-family="Arial" font-size="14.00" fill="#666666">[table]</text>
<polygon fill="none" stroke="#000000" points="43,-881.5 43,-911.5 259,-911.5 259,-881.5 43,-881.5"/>
<text text-anchor="start" x="49.5007" y="-892.9" font-family="Arial" font-size="14.00" fill="#000000">migration_v2_id    </text>
<text text-anchor="start" x="182.4979" y="-892.9" font-family="Arial" font-size="14.00" fill="#666666">[INTEGER]</text>
<polygon fill="none" stroke="#000000" points="43,-851.5 43,-881.5 259,-881.5 259,-851.5 43,-851.5"/>
<text text-anchor="start" x="50" y="-862.9" font-family="Arial" font-size="14.00" fill="#000000">file_name    </text>
<text text-anchor="start" x="144.8822" y="-862.9" font-family="Arial" font-size="14.00" fill="#666666">[TEXT]</text>
<polygon fill="none" stroke="#000000" points="43,-821.5 43,-851.5 259,-851.5 259,-821.5 43,-821.5"/>
<text text-anchor="start" x="50" y="-832.9" font-family="Arial" font-size="14.00" fill="#000000">migrate_time    </text>
<text text-anchor="start" x="165.094" y="-832.9" font-family="Arial" font-size="14.00" fill="#666666">[TEXT]</text>
</g>
<!-- env -->
<g id="node2" class="node">
<title>env</title>
<polygon fill="#efefef" stroke="transparent" points="368,-192.5 368,-227.5 536,-227.5 536,-192.5 368,-192.5"/>
<polygon fill="none" stroke="#000000" points="368,-192.5 368,-227.5 536,-227.5 536,-192.5 368,-192.5"/>
<text text-anchor="start" x="401.3283" y="-205.3" font-family="Arial Bold" font-size="18.00" fill="#000000">env</text>
<text text-anchor="start" x="430.3407" y="-205.3" font-family="Arial" font-size="14.00" fill="#000000">    </text>
<text text-anchor="start" x="464.5455" y="-205.3" font-family="Arial" font-size="14.00" fill="#666666">[table]</text>
<polygon fill="none" stroke="#000000" points="368,-162.5 368,-192.5 536,-192.5 536,-162.5 368,-162.5"/>
<text text-anchor="start" x="375" y="-173.9" font-family="Arial" font-size="14.00" fill="#000000">env_id    </text>
<text text-anchor="start" x="450.4418" y="-173.9" font-family="Arial" font-size="14.00" fill="#666666">[INTEGER]</text>
<polygon fill="none" stroke="#000000" points="368,-132.5 368,-162.5 536,-162.5 536,-132.5 368,-132.5"/>
<text text-anchor="start" x="375" y="-143.9" font-family="Arial" font-size="14.00" fill="#000000">name    </text>
<text text-anchor="start" x="444.2132" y="-143.9" font-family="Arial" font-size="14.00" fill="#666666">[TEXT]</text>
<polygon fill="none" stroke="#000000" points="368,-102.5 368,-132.5 536,-132.5 536,-102.5 368,-102.5"/>
<text text-anchor="start" x="375" y="-113.9" font-family="Arial" font-size="14.00" fill="#000000">comment    </text>
<text text-anchor="start" x="466.7644" y="-113.9" font-family="Arial" font-size="14.00" fill="#666666">[TEXT]</text>
<polygon fill="none" stroke="#000000" points="368,-72.5 368,-102.5 536,-102.5 536,-72.5 368,-72.5"/>
<text text-anchor="start" x="375" y="-83.9" font-family="Arial" font-size="14.00" fill="#000000">create_time    </text>
<text text-anchor="start" x="482.3268" y="-83.9" font-family="Arial" font-size="14.00" fill="#666666">[TEXT]</text>
<polygon fill="none" stroke="#000000" points="368,-42.5 368,-72.5 536,-72.5 536,-42.5 368,-42.5"/>
<text text-anchor="start" x="374.6045" y="-53.9" font-family="Arial" font-size="14.00" fill="#000000">update_time    </text>
<text text-anchor="start" x="485.8359" y="-53.9" font-family="Arial" font-size="14.00" fill="#666666">[TEXT]</text>
</g>
<!-- var -->
<g id="node3" class="node">
<title>var</title>
<polygon fill="#efefef" stroke="transparent" points="446,-559.5 446,-594.5 614,-594.5 614,-559.5 446,-559.5"/>
<polygon fill="none" stroke="#000000" points="446,-559.5 446,-594.5 614,-594.5 614,-559.5 446,-559.5"/>
<text text-anchor="start" x="481.3353" y="-572.3" font-family="Arial Bold" font-size="18.00" fill="#000000">var</text>
<text text-anchor="start" x="506.3337" y="-572.3" font-family="Arial" font-size="14.00" fill="#000000">    </text>
<text text-anchor="start" x="540.5385" y="-572.3" font-family="Arial" font-size="14.00" fill="#666666">[table]</text>
<polygon fill="none" stroke="#000000" points="446,-529.5 446,-559.5 614,-559.5 614,-529.5 446,-529.5"/>
<text text-anchor="start" x="453" y="-540.9" font-family="Arial" font-size="14.00" fill="#000000">var_id    </text>
<text text-anchor="start" x="525.3198" y="-540.9" font-family="Arial" font-size="14.00" fill="#666666">[INTEGER]</text>
<polygon fill="none" stroke="#000000" points="446,-499.5 446,-529.5 614,-529.5 614,-499.5 446,-499.5"/>
<text text-anchor="start" x="453" y="-510.9" font-family="Arial" font-size="14.00" fill="#000000">env_id    </text>
<text text-anchor="start" x="528.4418" y="-510.9" font-family="Arial" font-size="14.00" fill="#666666">[INTEGER]</text>
<polygon fill="none" stroke="#000000" points="446,-469.5 446,-499.5 614,-499.5 614,-469.5 446,-469.5"/>
<text text-anchor="start" x="453" y="-480.9" font-family="Arial" font-size="14.00" fill="#000000">name    </text>
<text text-anchor="start" x="522.2132" y="-480.9" font-family="Arial" font-size="14.00" fill="#666666">[TEXT]</text>
<polygon fill="none" stroke="#000000" points="446,-439.5 446,-469.5 614,-469.5 614,-439.5 446,-439.5"/>
<text text-anchor="start" x="453" y="-450.9" font-family="Arial" font-size="14.00" fill="#000000">comment    </text>
<text text-anchor="start" x="544.7644" y="-450.9" font-family="Arial" font-size="14.00" fill="#666666">[TEXT]</text>
<polygon fill="none" stroke="#000000" points="446,-409.5 446,-439.5 614,-439.5 614,-409.5 446,-409.5"/>
<text text-anchor="start" x="453" y="-420.9" font-family="Arial" font-size="14.00" fill="#000000">create_time    </text>
<text text-anchor="start" x="560.3268" y="-420.9" font-family="Arial" font-size="14.00" fill="#666666">[TEXT]</text>
<polygon fill="none" stroke="#000000" points="446,-379.5 446,-409.5 614,-409.5 614,-379.5 446,-379.5"/>
<text text-anchor="start" x="452.6045" y="-390.9" font-family="Arial" font-size="14.00" fill="#000000">update_time    </text>
<text text-anchor="start" x="563.8359" y="-390.9" font-family="Arial" font-size="14.00" fill="#666666">[TEXT]</text>
<polygon fill="none" stroke="#000000" points="446,-349.5 446,-379.5 614,-379.5 614,-349.5 446,-349.5"/>
<text text-anchor="start" x="453" y="-360.9" font-family="Arial" font-size="14.00" fill="#000000">value    </text>
<text text-anchor="start" x="520.6592" y="-360.9" font-family="Arial" font-size="14.00" fill="#666666">[TEXT]</text>
</g>
<!-- var&#45;&gt;env -->
<g id="edge1" class="edge">
<title>var:env_id&#45;&gt;env:env_id</title>
<path fill="none" stroke="#000000" d="M435.7931,-513.9108C356.9604,-504.3387 396.3172,-380.3831 446,-307 470.1526,-271.3258 511.8474,-306.6742 536,-271 559.2972,-236.5892 577.5556,-177.5 536,-177.5"/>
<polygon fill="#000000" stroke="#000000" points="436.0166,-513.9236 445.7406,-518.9925 441.0083,-514.2118 446,-514.5 446,-514.5 446,-514.5 441.0083,-514.2118 446.2594,-510.0075 436.0166,-513.9236 436.0166,-513.9236"/>
</g>
<!-- var_ref -->
<g id="node4" class="node">
<title>var_ref</title>
<polygon fill="#efefef" stroke="transparent" points="363,-971.5 363,-1006.5 543,-1006.5 543,-971.5 363,-971.5"/>
<polygon fill="none" stroke="#000000" points="363,-971.5 363,-1006.5 543,-1006.5 543,-971.5 363,-971.5"/>
<text text-anchor="start" x="388.8319" y="-984.3" font-family="Arial Bold" font-size="18.00" fill="#000000">var_ref</text>
<text text-anchor="start" x="444.8371" y="-984.3" font-family="Arial" font-size="14.00" fill="#000000">    </text>
<text text-anchor="start" x="479.0419" y="-984.3" font-family="Arial" font-size="14.00" fill="#666666">[table]</text>
<polygon fill="none" stroke="#000000" points="363,-941.5 363,-971.5 543,-971.5 543,-941.5 363,-941.5"/>
<text text-anchor="start" x="369.7812" y="-952.9" font-family="Arial" font-size="14.00" fill="#000000">var_ref_id    </text>
<text text-anchor="start" x="466.2174" y="-952.9" font-family="Arial" font-size="14.00" fill="#666666">[INTEGER]</text>
<polygon fill="none" stroke="#000000" points="363,-911.5 363,-941.5 543,-941.5 543,-911.5 363,-911.5"/>
<text text-anchor="start" x="370" y="-922.9" font-family="Arial" font-size="14.00" fill="#000000">env_id    </text>
<text text-anchor="start" x="445.4418" y="-922.9" font-family="Arial" font-size="14.00" fill="#666666">[INTEGER]</text>
<polygon fill="none" stroke="#000000" points="363,-881.5 363,-911.5 543,-911.5 543,-881.5 363,-881.5"/>
<text text-anchor="start" x="370" y="-892.9" font-family="Arial" font-size="14.00" fill="#000000">name    </text>
<text text-anchor="start" x="439.2132" y="-892.9" font-family="Arial" font-size="14.00" fill="#666666">[TEXT]</text>
<polygon fill="none" stroke="#000000" points="363,-851.5 363,-881.5 543,-881.5 543,-851.5 363,-851.5"/>
<text text-anchor="start" x="370" y="-862.9" font-family="Arial" font-size="14.00" fill="#000000">comment    </text>
<text text-anchor="start" x="461.7644" y="-862.9" font-family="Arial" font-size="14.00" fill="#666666">[TEXT]</text>
<polygon fill="none" stroke="#000000" points="363,-821.5 363,-851.5 543,-851.5 543,-821.5 363,-821.5"/>
<text text-anchor="start" x="370" y="-832.9" font-family="Arial" font-size="14.00" fill="#000000">create_time    </text>
<text text-anchor="start" x="477.3268" y="-832.9" font-family="Arial" font-size="14.00" fill="#666666">[TEXT]</text>
<polygon fill="none" stroke="#000000" points="363,-791.5 363,-821.5 543,-821.5 543,-791.5 363,-791.5"/>
<text text-anchor="start" x="370" y="-802.9" font-family="Arial" font-size="14.00" fill="#000000">update_time    </text>
<text text-anchor="start" x="481.2314" y="-802.9" font-family="Arial" font-size="14.00" fill="#666666">[TEXT]</text>
<polygon fill="none" stroke="#000000" points="363,-761.5 363,-791.5 543,-791.5 543,-761.5 363,-761.5"/>
<text text-anchor="start" x="370" y="-772.9" font-family="Arial" font-size="14.00" fill="#000000">var_id    </text>
<text text-anchor="start" x="442.3198" y="-772.9" font-family="Arial" font-size="14.00" fill="#666666">[INTEGER]</text>
</g>
<!-- var_ref&#45;&gt;env -->
<g id="edge3" class="edge">
<title>var_ref:env_id&#45;&gt;env:env_id</title>
<path fill="none" stroke="#000000" d="M356.1635,-919.0869C322.0996,-841.298 328.8262,-177.5 368,-177.5"/>
<polygon fill="#000000" stroke="#000000" points="356.2206,-919.1488 359.692,-929.5507 359.6103,-922.8244 363,-926.5 363,-926.5 363,-926.5 359.6103,-922.8244 366.308,-923.4493 356.2206,-919.1488 356.2206,-919.1488"/>
</g>
<!-- var_ref&#45;&gt;var -->
<g id="edge2" class="edge">
<title>var_ref:var_id&#45;&gt;var:var_id</title>
<path fill="none" stroke="#000000" d="M452.6294,-751.2401C445.9702,-656.6813 352.8978,-544.5 446,-544.5"/>
<polygon fill="#000000" stroke="#000000" points="452.639,-751.5065 448.5029,-761.6625 452.8195,-756.5033 453,-761.5 453,-761.5 453,-761.5 452.8195,-756.5033 457.4971,-761.3375 452.639,-751.5065 452.639,-751.5065"/>
</g>
<!-- vw_env_var_var_ref_unique_name -->
<g id="node5" class="node">
<title>vw_env_var_var_ref_unique_name</title>
<polygon fill="#efefef" stroke="transparent" points="648,-896.5 648,-931.5 1013,-931.5 1013,-896.5 648,-896.5"/>
<polygon fill="none" stroke="#000000" points="648,-896.5 648,-931.5 1013,-931.5 1013,-896.5 648,-896.5"/>
<text text-anchor="start" x="654.9705" y="-909.3" font-family="Arial Bold" font-size="18.00" fill="#000000">vw_env_var_var_ref_unique_name</text>
<text text-anchor="start" x="936.0477" y="-909.3" font-family="Arial" font-size="14.00" fill="#000000">    </text>
<text text-anchor="start" x="970.2525" y="-909.3" font-family="Arial" font-size="14.00" fill="#666666">[view]</text>
<polygon fill="none" stroke="#000000" points="648,-866.5 648,-896.5 1013,-896.5 1013,-866.5 648,-866.5"/>
<text text-anchor="start" x="655" y="-877.9" font-family="Arial" font-size="14.00" fill="#000000">env_id    </text>
<text text-anchor="start" x="730.4418" y="-877.9" font-family="Arial" font-size="14.00" fill="#666666">[INTEGER]</text>
<polygon fill="none" stroke="#000000" points="648,-836.5 648,-866.5 1013,-866.5 1013,-836.5 648,-836.5"/>
<text text-anchor="start" x="655" y="-847.9" font-family="Arial" font-size="14.00" fill="#000000">name    </text>
<text text-anchor="start" x="724.2132" y="-847.9" font-family="Arial" font-size="14.00" fill="#666666">[TEXT]</text>
</g>
<!-- vw_var_expanded -->
<g id="node6" class="node">
<title>vw_var_expanded</title>
<polygon fill="#efefef" stroke="transparent" points="1117,-986.5 1117,-1021.5 1347,-1021.5 1347,-986.5 1117,-986.5"/>
<polygon fill="none" stroke="#000000" points="1117,-986.5 1117,-1021.5 1347,-1021.5 1347,-986.5 1117,-986.5"/>
<text text-anchor="start" x="1123.9849" y="-999.3" font-family="Arial Bold" font-size="18.00" fill="#000000">vw_var_expanded</text>
<text text-anchor="start" x="1270.0333" y="-999.3" font-family="Arial" font-size="14.00" fill="#000000">    </text>
<text text-anchor="start" x="1304.2381" y="-999.3" font-family="Arial" font-size="14.00" fill="#666666">[view]</text>
<polygon fill="none" stroke="#000000" points="1117,-956.5 1117,-986.5 1347,-986.5 1347,-956.5 1117,-956.5"/>
<text text-anchor="start" x="1124" y="-967.9" font-family="Arial" font-size="14.00" fill="#000000">var_id    </text>
<text text-anchor="start" x="1196.3198" y="-967.9" font-family="Arial" font-size="14.00" fill="#666666">[INTEGER]</text>
<polygon fill="none" stroke="#000000" points="1117,-926.5 1117,-956.5 1347,-956.5 1347,-926.5 1117,-926.5"/>
<text text-anchor="start" x="1124" y="-937.9" font-family="Arial" font-size="14.00" fill="#000000">env_id    </text>
<text text-anchor="start" x="1199.4418" y="-937.9" font-family="Arial" font-size="14.00" fill="#666666">[INTEGER]</text>
<polygon fill="none" stroke="#000000" points="1117,-896.5 1117,-926.5 1347,-926.5 1347,-896.5 1117,-896.5"/>
<text text-anchor="start" x="1124" y="-907.9" font-family="Arial" font-size="14.00" fill="#000000">env_name    </text>
<text text-anchor="start" x="1223.561" y="-907.9" font-family="Arial" font-size="14.00" fill="#666666">[TEXT]</text>
<polygon fill="none" stroke="#000000" points="1117,-866.5 1117,-896.5 1347,-896.5 1347,-866.5 1117,-866.5"/>
<text text-anchor="start" x="1124" y="-877.9" font-family="Arial" font-size="14.00" fill="#000000">name    </text>
<text text-anchor="start" x="1193.2132" y="-877.9" font-family="Arial" font-size="14.00" fill="#666666">[TEXT]</text>
<polygon fill="none" stroke="#000000" points="1117,-836.5 1117,-866.5 1347,-866.5 1347,-836.5 1117,-836.5"/>
<text text-anchor="start" x="1124" y="-847.9" font-family="Arial" font-size="14.00" fill="#000000">value    </text>
<text text-anchor="start" x="1191.6592" y="-847.9" font-family="Arial" font-size="14.00" fill="#666666">[TEXT]</text>
<polygon fill="none" stroke="#000000" points="1117,-806.5 1117,-836.5 1347,-836.5 1347,-806.5 1117,-806.5"/>
<text text-anchor="start" x="1124" y="-817.9" font-family="Arial" font-size="14.00" fill="#000000">comment    </text>
<text text-anchor="start" x="1215.7644" y="-817.9" font-family="Arial" font-size="14.00" fill="#666666">[TEXT]</text>
<polygon fill="none" stroke="#000000" points="1117,-776.5 1117,-806.5 1347,-806.5 1347,-776.5 1117,-776.5"/>
<text text-anchor="start" x="1124" y="-787.9" font-family="Arial" font-size="14.00" fill="#000000">create_time    </text>
<text text-anchor="start" x="1231.3268" y="-787.9" font-family="Arial" font-size="14.00" fill="#666666">[TEXT]</text>
<polygon fill="none" stroke="#000000" points="1117,-746.5 1117,-776.5 1347,-776.5 1347,-746.5 1117,-746.5"/>
<text text-anchor="start" x="1124" y="-757.9" font-family="Arial" font-size="14.00" fill="#000000">update_time    </text>
<text text-anchor="start" x="1235.2314" y="-757.9" font-family="Arial" font-size="14.00" fill="#666666">[TEXT]</text>
</g>
<!-- vw_var_ref_expanded -->
<g id="node7" class="node">
<title>vw_var_ref_expanded</title>
<polygon fill="#efefef" stroke="transparent" points="1452,-1016.5 1452,-1051.5 1713,-1051.5 1713,-1016.5 1452,-1016.5"/>
<polygon fill="none" stroke="#000000" points="1452,-1016.5 1452,-1051.5 1713,-1051.5 1713,-1016.5 1452,-1016.5"/>
<text text-anchor="start" x="1458.9815" y="-1029.3" font-family="Arial Bold" font-size="18.00" fill="#000000">vw_var_ref_expanded</text>
<text text-anchor="start" x="1636.0367" y="-1029.3" font-family="Arial" font-size="14.00" fill="#000000">    </text>
<text text-anchor="start" x="1670.2415" y="-1029.3" font-family="Arial" font-size="14.00" fill="#666666">[view]</text>
<polygon fill="none" stroke="#000000" points="1452,-986.5 1452,-1016.5 1713,-1016.5 1713,-986.5 1452,-986.5"/>
<text text-anchor="start" x="1459" y="-997.9" font-family="Arial" font-size="14.00" fill="#000000">var_ref_id    </text>
<text text-anchor="start" x="1555.4362" y="-997.9" font-family="Arial" font-size="14.00" fill="#666666">[INTEGER]</text>
<polygon fill="none" stroke="#000000" points="1452,-956.5 1452,-986.5 1713,-986.5 1713,-956.5 1452,-956.5"/>
<text text-anchor="start" x="1459" y="-967.9" font-family="Arial" font-size="14.00" fill="#000000">env_id    </text>
<text text-anchor="start" x="1534.4418" y="-967.9" font-family="Arial" font-size="14.00" fill="#666666">[INTEGER]</text>
<polygon fill="none" stroke="#000000" points="1452,-926.5 1452,-956.5 1713,-956.5 1713,-926.5 1452,-926.5"/>
<text text-anchor="start" x="1459" y="-937.9" font-family="Arial" font-size="14.00" fill="#000000">env_name    </text>
<text text-anchor="start" x="1558.561" y="-937.9" font-family="Arial" font-size="14.00" fill="#666666">[TEXT]</text>
<polygon fill="none" stroke="#000000" points="1452,-896.5 1452,-926.5 1713,-926.5 1713,-896.5 1452,-896.5"/>
<text text-anchor="start" x="1459" y="-907.9" font-family="Arial" font-size="14.00" fill="#000000">name    </text>
<text text-anchor="start" x="1528.2132" y="-907.9" font-family="Arial" font-size="14.00" fill="#666666">[TEXT]</text>
<polygon fill="none" stroke="#000000" points="1452,-866.5 1452,-896.5 1713,-896.5 1713,-866.5 1452,-866.5"/>
<text text-anchor="start" x="1459" y="-877.9" font-family="Arial" font-size="14.00" fill="#000000">var_id    </text>
<text text-anchor="start" x="1531.3198" y="-877.9" font-family="Arial" font-size="14.00" fill="#666666">[INTEGER]</text>
<polygon fill="none" stroke="#000000" points="1452,-836.5 1452,-866.5 1713,-866.5 1713,-836.5 1452,-836.5"/>
<text text-anchor="start" x="1459" y="-847.9" font-family="Arial" font-size="14.00" fill="#000000">ref_var_name    </text>
<text text-anchor="start" x="1579.5554" y="-847.9" font-family="Arial" font-size="14.00" fill="#666666">[TEXT]</text>
<polygon fill="none" stroke="#000000" points="1452,-806.5 1452,-836.5 1713,-836.5 1713,-806.5 1452,-806.5"/>
<text text-anchor="start" x="1459" y="-817.9" font-family="Arial" font-size="14.00" fill="#000000">ref_env_name    </text>
<text text-anchor="start" x="1582.6774" y="-817.9" font-family="Arial" font-size="14.00" fill="#666666">[TEXT]</text>
<polygon fill="none" stroke="#000000" points="1452,-776.5 1452,-806.5 1713,-806.5 1713,-776.5 1452,-776.5"/>
<text text-anchor="start" x="1459" y="-787.9" font-family="Arial" font-size="14.00" fill="#000000">comment    </text>
<text text-anchor="start" x="1550.7644" y="-787.9" font-family="Arial" font-size="14.00" fill="#666666">[TEXT]</text>
<polygon fill="none" stroke="#000000" points="1452,-746.5 1452,-776.5 1713,-776.5 1713,-746.5 1452,-746.5"/>
<text text-anchor="start" x="1459" y="-757.9" font-family="Arial" font-size="14.00" fill="#000000">create_time    </text>
<text text-anchor="start" x="1566.3268" y="-757.9" font-family="Arial" font-size="14.00" fill="#666666">[TEXT]</text>
<polygon fill="none" stroke="#000000" points="1452,-716.5 1452,-746.5 1713,-746.5 1713,-716.5 1452,-716.5"/>
<text text-anchor="start" x="1459" y="-727.9" font-family="Arial" font-size="14.00" fill="#000000">update_time    </text>
<text text-anchor="start" x="1570.2314" y="-727.9" font-family="Arial" font-size="14.00" fill="#666666">[TEXT]</text>
</g>
</g>
</svg>
