<?xml version="1.0" encoding="UTF-8" standalone="no"?>
<!DOCTYPE svg PUBLIC "-//W3C//DTD SVG 1.1//EN"
 "http://www.w3.org/Graphics/SVG/1.1/DTD/svg11.dtd">
<!-- Generated by graphviz version 2.40.1 (20161225.0304)
 -->
<!-- Title: var Pages: 1 -->
<svg width="275pt" height="1019pt"
 viewBox="0.00 0.00 275.10 1019.00" xmlns="http://www.w3.org/2000/svg" xmlns:xlink="http://www.w3.org/1999/xlink">
<g id="graph0" class="graph" transform="scale(1 1) rotate(0) translate(4 1015)">
<title>var</title>
<polygon fill="#ffffff" stroke="transparent" points="-4,4 -4,-1015 271.1003,-1015 271.1003,4 -4,4"/>
<!-- var -->
<g id="node1" class="node">
<title>var</title>
<polygon fill="#efefef" stroke="transparent" points="64,-562.5 64,-597.5 202,-597.5 202,-562.5 64,-562.5"/>
<polygon fill="none" stroke="#000000" points="64,-562.5 64,-597.5 202,-597.5 202,-562.5 64,-562.5"/>
<text text-anchor="start" x="84.3353" y="-575.3" font-family="Arial Bold" font-size="18.00" fill="#000000">var</text>
<text text-anchor="start" x="109.3337" y="-575.3" font-family="Arial" font-size="14.00" fill="#000000">    </text>
<text text-anchor="start" x="143.5385" y="-575.3" font-family="Arial" font-size="14.00" fill="#666666">[table]</text>
<polygon fill="none" stroke="#000000" points="64,-532.5 64,-562.5 202,-562.5 202,-532.5 64,-532.5"/>
<text text-anchor="start" x="71" y="-543.9" font-family="Arial" font-size="14.00" fill="#000000">var_id </text>
<text text-anchor="start" x="113.0056" y="-543.9" font-family="Arial" font-size="14.00" fill="#666666">[INTEGER]</text>
<polygon fill="none" stroke="#000000" points="64,-502.5 64,-532.5 202,-532.5 202,-502.5 64,-502.5"/>
<text text-anchor="start" x="71" y="-513.9" font-family="Arial" font-size="14.00" fill="#000000">env_id </text>
<text text-anchor="start" x="116.1276" y="-513.9" font-family="Arial" font-size="14.00" fill="#666666">[INTEGER]</text>
<polygon fill="none" stroke="#000000" points="64,-472.5 64,-502.5 202,-502.5 202,-472.5 64,-472.5"/>
<text text-anchor="start" x="71" y="-483.9" font-family="Arial" font-size="14.00" fill="#000000">name </text>
<text text-anchor="start" x="109.899" y="-483.9" font-family="Arial" font-size="14.00" fill="#666666">[TEXT]</text>
<polygon fill="none" stroke="#000000" points="64,-442.5 64,-472.5 202,-472.5 202,-442.5 64,-442.5"/>
<text text-anchor="start" x="71" y="-453.9" font-family="Arial" font-size="14.00" fill="#000000">comment </text>
<text text-anchor="start" x="132.4502" y="-453.9" font-family="Arial" font-size="14.00" fill="#666666">[TEXT]</text>
<polygon fill="none" stroke="#000000" points="64,-412.5 64,-442.5 202,-442.5 202,-412.5 64,-412.5"/>
<text text-anchor="start" x="71" y="-423.9" font-family="Arial" font-size="14.00" fill="#000000">create_time </text>
<text text-anchor="start" x="148.0126" y="-423.9" font-family="Arial" font-size="14.00" fill="#666666">[TEXT]</text>
<polygon fill="none" stroke="#000000" points="64,-382.5 64,-412.5 202,-412.5 202,-382.5 64,-382.5"/>
<text text-anchor="start" x="70.7616" y="-393.9" font-family="Arial" font-size="14.00" fill="#000000">update_time </text>
<text text-anchor="start" x="151.6788" y="-393.9" font-family="Arial" font-size="14.00" fill="#666666">[TEXT]</text>
<polygon fill="none" stroke="#000000" points="64,-352.5 64,-382.5 202,-382.5 202,-352.5 64,-352.5"/>
<text text-anchor="start" x="71" y="-363.9" font-family="Arial" font-size="14.00" fill="#000000">value </text>
<text text-anchor="start" x="108.345" y="-363.9" font-family="Arial" font-size="14.00" fill="#666666">[TEXT]</text>
<polygon fill="none" stroke="#000000" stroke-width="3" points="62.5,-351.5 62.5,-599.5 203.5,-599.5 203.5,-351.5 62.5,-351.5"/>
</g>
<!-- env -->
<g id="node3" class="node">
<title>env</title>
<polygon fill="#efefef" stroke="transparent" points="49,-192.5 49,-227.5 217,-227.5 217,-192.5 49,-192.5"/>
<polygon fill="none" stroke="#000000" points="49,-192.5 49,-227.5 217,-227.5 217,-192.5 49,-192.5"/>
<text text-anchor="start" x="82.3283" y="-205.3" font-family="Arial Bold" font-size="18.00" fill="#000000">env</text>
<text text-anchor="start" x="111.3407" y="-205.3" font-family="Arial" font-size="14.00" fill="#000000">    </text>
<text text-anchor="start" x="145.5455" y="-205.3" font-family="Arial" font-size="14.00" fill="#666666">[table]</text>
<polygon fill="none" stroke="#000000" points="49,-162.5 49,-192.5 217,-192.5 217,-162.5 49,-162.5"/>
<text text-anchor="start" x="56" y="-173.9" font-family="Arial" font-size="14.00" fill="#000000">env_id    </text>
<text text-anchor="start" x="131.4418" y="-173.9" font-family="Arial" font-size="14.00" fill="#666666">[INTEGER]</text>
<polygon fill="none" stroke="#000000" points="49,-132.5 49,-162.5 217,-162.5 217,-132.5 49,-132.5"/>
<text text-anchor="start" x="56" y="-143.9" font-family="Arial" font-size="14.00" fill="#000000">name    </text>
<text text-anchor="start" x="125.2132" y="-143.9" font-family="Arial" font-size="14.00" fill="#666666">[TEXT]</text>
<polygon fill="none" stroke="#000000" points="49,-102.5 49,-132.5 217,-132.5 217,-102.5 49,-102.5"/>
<text text-anchor="start" x="56" y="-113.9" font-family="Arial" font-size="14.00" fill="#000000">comment    </text>
<text text-anchor="start" x="147.7644" y="-113.9" font-family="Arial" font-size="14.00" fill="#666666">[TEXT]</text>
<polygon fill="none" stroke="#000000" points="49,-72.5 49,-102.5 217,-102.5 217,-72.5 49,-72.5"/>
<text text-anchor="start" x="56" y="-83.9" font-family="Arial" font-size="14.00" fill="#000000">create_time    </text>
<text text-anchor="start" x="163.3268" y="-83.9" font-family="Arial" font-size="14.00" fill="#666666">[TEXT]</text>
<polygon fill="none" stroke="#000000" points="49,-42.5 49,-72.5 217,-72.5 217,-42.5 49,-42.5"/>
<text text-anchor="start" x="55.6045" y="-53.9" font-family="Arial" font-size="14.00" fill="#000000">update_time    </text>
<text text-anchor="start" x="166.8359" y="-53.9" font-family="Arial" font-size="14.00" fill="#666666">[TEXT]</text>
</g>
<!-- var&#45;&gt;env -->
<g id="edge2" class="edge">
<title>var:env_id&#45;&gt;env:env_id</title>
<path fill="none" stroke="#000000" d="M211.8224,-515.5033C278.7938,-487.6392 289.2317,-177.5 217,-177.5"/>
<polygon fill="#000000" stroke="#000000" points="211.7996,-515.5079 201.1035,-513.0902 206.8998,-516.5039 202,-517.5 202,-517.5 202,-517.5 206.8998,-516.5039 202.8965,-521.9098 211.7996,-515.5079 211.7996,-515.5079"/>
</g>
<!-- var_ref -->
<g id="node2" class="node">
<title>var_ref</title>
<polygon fill="#efefef" stroke="transparent" points="43,-932.5 43,-967.5 223,-967.5 223,-932.5 43,-932.5"/>
<polygon fill="none" stroke="#000000" points="43,-932.5 43,-967.5 223,-967.5 223,-932.5 43,-932.5"/>
<text text-anchor="start" x="68.8319" y="-945.3" font-family="Arial Bold" font-size="18.00" fill="#000000">var_ref</text>
<text text-anchor="start" x="124.8371" y="-945.3" font-family="Arial" font-size="14.00" fill="#000000">    </text>
<text text-anchor="start" x="159.0419" y="-945.3" font-family="Arial" font-size="14.00" fill="#666666">[table]</text>
<polygon fill="none" stroke="#000000" points="43,-902.5 43,-932.5 223,-932.5 223,-902.5 43,-902.5"/>
<text text-anchor="start" x="49.7812" y="-913.9" font-family="Arial" font-size="14.00" fill="#000000">var_ref_id    </text>
<text text-anchor="start" x="146.2174" y="-913.9" font-family="Arial" font-size="14.00" fill="#666666">[INTEGER]</text>
<polygon fill="none" stroke="#000000" points="43,-872.5 43,-902.5 223,-902.5 223,-872.5 43,-872.5"/>
<text text-anchor="start" x="50" y="-883.9" font-family="Arial" font-size="14.00" fill="#000000">env_id    </text>
<text text-anchor="start" x="125.4418" y="-883.9" font-family="Arial" font-size="14.00" fill="#666666">[INTEGER]</text>
<polygon fill="none" stroke="#000000" points="43,-842.5 43,-872.5 223,-872.5 223,-842.5 43,-842.5"/>
<text text-anchor="start" x="50" y="-853.9" font-family="Arial" font-size="14.00" fill="#000000">name    </text>
<text text-anchor="start" x="119.2132" y="-853.9" font-family="Arial" font-size="14.00" fill="#666666">[TEXT]</text>
<polygon fill="none" stroke="#000000" points="43,-812.5 43,-842.5 223,-842.5 223,-812.5 43,-812.5"/>
<text text-anchor="start" x="50" y="-823.9" font-family="Arial" font-size="14.00" fill="#000000">comment    </text>
<text text-anchor="start" x="141.7644" y="-823.9" font-family="Arial" font-size="14.00" fill="#666666">[TEXT]</text>
<polygon fill="none" stroke="#000000" points="43,-782.5 43,-812.5 223,-812.5 223,-782.5 43,-782.5"/>
<text text-anchor="start" x="50" y="-793.9" font-family="Arial" font-size="14.00" fill="#000000">create_time    </text>
<text text-anchor="start" x="157.3268" y="-793.9" font-family="Arial" font-size="14.00" fill="#666666">[TEXT]</text>
<polygon fill="none" stroke="#000000" points="43,-752.5 43,-782.5 223,-782.5 223,-752.5 43,-752.5"/>
<text text-anchor="start" x="50" y="-763.9" font-family="Arial" font-size="14.00" fill="#000000">update_time    </text>
<text text-anchor="start" x="161.2314" y="-763.9" font-family="Arial" font-size="14.00" fill="#666666">[TEXT]</text>
<polygon fill="none" stroke="#000000" points="43,-722.5 43,-752.5 223,-752.5 223,-722.5 43,-722.5"/>
<text text-anchor="start" x="50" y="-733.9" font-family="Arial" font-size="14.00" fill="#000000">var_id    </text>
<text text-anchor="start" x="122.3198" y="-733.9" font-family="Arial" font-size="14.00" fill="#666666">[INTEGER]</text>
</g>
<!-- var_ref&#45;&gt;var -->
<g id="edge1" class="edge">
<title>var_ref:var_id&#45;&gt;var:var_id</title>
<path fill="none" stroke="#000000" d="M134.0131,-712.1747C141.3881,-677.5527 186.9573,-683.8989 202,-644 217.1303,-603.8686 244.8889,-547.5 202,-547.5"/>
<polygon fill="#000000" stroke="#000000" points="133.9766,-712.5478 128.5215,-722.0605 133.4883,-717.5239 133,-722.5 133,-722.5 133,-722.5 133.4883,-717.5239 137.4785,-722.9395 133.9766,-712.5478 133.9766,-712.5478"/>
</g>
</g>
</svg>
