<?xml version="1.0" encoding="UTF-8" standalone="no"?>
<!DOCTYPE svg PUBLIC "-//W3C//DTD SVG 1.1//EN"
 "http://www.w3.org/Graphics/SVG/1.1/DTD/svg11.dtd">
<!-- Generated by graphviz version 2.40.1 (20161225.0304)
 -->
<!-- Title: var_ref Pages: 1 -->
<svg width="534pt" height="712pt"
 viewBox="0.00 0.00 534.00 712.00" xmlns="http://www.w3.org/2000/svg" xmlns:xlink="http://www.w3.org/1999/xlink">
<g id="graph0" class="graph" transform="scale(1 1) rotate(0) translate(4 708)">
<title>var_ref</title>
<polygon fill="#ffffff" stroke="transparent" points="-4,4 -4,-708 530,-708 530,4 -4,4"/>
<!-- var_ref -->
<g id="node1" class="node">
<title>var_ref</title>
<polygon fill="#efefef" stroke="transparent" points="188,-622.5 188,-657.5 338,-657.5 338,-622.5 188,-622.5"/>
<polygon fill="none" stroke="#000000" points="188,-622.5 188,-657.5 338,-657.5 338,-622.5 188,-622.5"/>
<text text-anchor="start" x="198.8319" y="-635.3" font-family="Arial Bold" font-size="18.00" fill="#000000">var_ref</text>
<text text-anchor="start" x="254.8371" y="-635.3" font-family="Arial" font-size="14.00" fill="#000000">    </text>
<text text-anchor="start" x="289.0419" y="-635.3" font-family="Arial" font-size="14.00" fill="#666666">[table]</text>
<polygon fill="none" stroke="#000000" points="188,-592.5 188,-622.5 338,-622.5 338,-592.5 188,-592.5"/>
<text text-anchor="start" x="194.9383" y="-603.9" font-family="Arial" font-size="14.00" fill="#000000">var_ref_id </text>
<text text-anchor="start" x="261.0603" y="-603.9" font-family="Arial" font-size="14.00" fill="#666666">[INTEGER]</text>
<polygon fill="none" stroke="#000000" points="188,-562.5 188,-592.5 338,-592.5 338,-562.5 188,-562.5"/>
<text text-anchor="start" x="195" y="-573.9" font-family="Arial" font-size="14.00" fill="#000000">env_id </text>
<text text-anchor="start" x="240.1276" y="-573.9" font-family="Arial" font-size="14.00" fill="#666666">[INTEGER]</text>
<polygon fill="none" stroke="#000000" points="188,-532.5 188,-562.5 338,-562.5 338,-532.5 188,-532.5"/>
<text text-anchor="start" x="195" y="-543.9" font-family="Arial" font-size="14.00" fill="#000000">name </text>
<text text-anchor="start" x="233.899" y="-543.9" font-family="Arial" font-size="14.00" fill="#666666">[TEXT]</text>
<polygon fill="none" stroke="#000000" points="188,-502.5 188,-532.5 338,-532.5 338,-502.5 188,-502.5"/>
<text text-anchor="start" x="195" y="-513.9" font-family="Arial" font-size="14.00" fill="#000000">comment </text>
<text text-anchor="start" x="256.4502" y="-513.9" font-family="Arial" font-size="14.00" fill="#666666">[TEXT]</text>
<polygon fill="none" stroke="#000000" points="188,-472.5 188,-502.5 338,-502.5 338,-472.5 188,-472.5"/>
<text text-anchor="start" x="195" y="-483.9" font-family="Arial" font-size="14.00" fill="#000000">create_time </text>
<text text-anchor="start" x="272.0126" y="-483.9" font-family="Arial" font-size="14.00" fill="#666666">[TEXT]</text>
<polygon fill="none" stroke="#000000" points="188,-442.5 188,-472.5 338,-472.5 338,-442.5 188,-442.5"/>
<text text-anchor="start" x="195" y="-453.9" font-family="Arial" font-size="14.00" fill="#000000">update_time </text>
<text text-anchor="start" x="275.9172" y="-453.9" font-family="Arial" font-size="14.00" fill="#666666">[TEXT]</text>
<polygon fill="none" stroke="#000000" points="188,-412.5 188,-442.5 338,-442.5 338,-412.5 188,-412.5"/>
<text text-anchor="start" x="195" y="-423.9" font-family="Arial" font-size="14.00" fill="#000000">var_id </text>
<text text-anchor="start" x="237.0056" y="-423.9" font-family="Arial" font-size="14.00" fill="#666666">[INTEGER]</text>
<polygon fill="none" stroke="#000000" stroke-width="3" points="186.5,-411.5 186.5,-659.5 339.5,-659.5 339.5,-411.5 186.5,-411.5"/>
</g>
<!-- env -->
<g id="node2" class="node">
<title>env</title>
<polygon fill="#efefef" stroke="transparent" points="43,-222.5 43,-257.5 211,-257.5 211,-222.5 43,-222.5"/>
<polygon fill="none" stroke="#000000" points="43,-222.5 43,-257.5 211,-257.5 211,-222.5 43,-222.5"/>
<text text-anchor="start" x="76.3283" y="-235.3" font-family="Arial Bold" font-size="18.00" fill="#000000">env</text>
<text text-anchor="start" x="105.3407" y="-235.3" font-family="Arial" font-size="14.00" fill="#000000">    </text>
<text text-anchor="start" x="139.5455" y="-235.3" font-family="Arial" font-size="14.00" fill="#666666">[table]</text>
<polygon fill="none" stroke="#000000" points="43,-192.5 43,-222.5 211,-222.5 211,-192.5 43,-192.5"/>
<text text-anchor="start" x="50" y="-203.9" font-family="Arial" font-size="14.00" fill="#000000">env_id    </text>
<text text-anchor="start" x="125.4418" y="-203.9" font-family="Arial" font-size="14.00" fill="#666666">[INTEGER]</text>
<polygon fill="none" stroke="#000000" points="43,-162.5 43,-192.5 211,-192.5 211,-162.5 43,-162.5"/>
<text text-anchor="start" x="50" y="-173.9" font-family="Arial" font-size="14.00" fill="#000000">name    </text>
<text text-anchor="start" x="119.2132" y="-173.9" font-family="Arial" font-size="14.00" fill="#666666">[TEXT]</text>
<polygon fill="none" stroke="#000000" points="43,-132.5 43,-162.5 211,-162.5 211,-132.5 43,-132.5"/>
<text text-anchor="start" x="50" y="-143.9" font-family="Arial" font-size="14.00" fill="#000000">comment    </text>
<text text-anchor="start" x="141.7644" y="-143.9" font-family="Arial" font-size="14.00" fill="#666666">[TEXT]</text>
<polygon fill="none" stroke="#000000" points="43,-102.5 43,-132.5 211,-132.5 211,-102.5 43,-102.5"/>
<text text-anchor="start" x="50" y="-113.9" font-family="Arial" font-size="14.00" fill="#000000">create_time    </text>
<text text-anchor="start" x="157.3268" y="-113.9" font-family="Arial" font-size="14.00" fill="#666666">[TEXT]</text>
<polygon fill="none" stroke="#000000" points="43,-72.5 43,-102.5 211,-102.5 211,-72.5 43,-72.5"/>
<text text-anchor="start" x="49.6045" y="-83.9" font-family="Arial" font-size="14.00" fill="#000000">update_time    </text>
<text text-anchor="start" x="160.8359" y="-83.9" font-family="Arial" font-size="14.00" fill="#666666">[TEXT]</text>
</g>
<!-- var_ref&#45;&gt;env -->
<g id="edge1" class="edge">
<title>var_ref:env_id&#45;&gt;env:env_id</title>
<path fill="none" stroke="#000000" d="M177.8076,-576.9673C100.4386,-568.3009 172.9975,-455.6404 188,-367 193.1838,-336.3721 205.8162,-331.6279 211,-301 217.9347,-260.0272 252.5556,-207.5 211,-207.5"/>
<polygon fill="#000000" stroke="#000000" points="178.0136,-576.9779 187.7651,-581.9939 183.0068,-577.239 188,-577.5 188,-577.5 188,-577.5 183.0068,-577.239 188.2349,-573.0061 178.0136,-576.9779 178.0136,-576.9779"/>
</g>
<!-- var -->
<g id="node3" class="node">
<title>var</title>
<polygon fill="#efefef" stroke="transparent" points="315,-252.5 315,-287.5 483,-287.5 483,-252.5 315,-252.5"/>
<polygon fill="none" stroke="#000000" points="315,-252.5 315,-287.5 483,-287.5 483,-252.5 315,-252.5"/>
<text text-anchor="start" x="350.3353" y="-265.3" font-family="Arial Bold" font-size="18.00" fill="#000000">var</text>
<text text-anchor="start" x="375.3337" y="-265.3" font-family="Arial" font-size="14.00" fill="#000000">    </text>
<text text-anchor="start" x="409.5385" y="-265.3" font-family="Arial" font-size="14.00" fill="#666666">[table]</text>
<polygon fill="none" stroke="#000000" points="315,-222.5 315,-252.5 483,-252.5 483,-222.5 315,-222.5"/>
<text text-anchor="start" x="322" y="-233.9" font-family="Arial" font-size="14.00" fill="#000000">var_id    </text>
<text text-anchor="start" x="394.3198" y="-233.9" font-family="Arial" font-size="14.00" fill="#666666">[INTEGER]</text>
<polygon fill="none" stroke="#000000" points="315,-192.5 315,-222.5 483,-222.5 483,-192.5 315,-192.5"/>
<text text-anchor="start" x="322" y="-203.9" font-family="Arial" font-size="14.00" fill="#000000">env_id    </text>
<text text-anchor="start" x="397.4418" y="-203.9" font-family="Arial" font-size="14.00" fill="#666666">[INTEGER]</text>
<polygon fill="none" stroke="#000000" points="315,-162.5 315,-192.5 483,-192.5 483,-162.5 315,-162.5"/>
<text text-anchor="start" x="322" y="-173.9" font-family="Arial" font-size="14.00" fill="#000000">name    </text>
<text text-anchor="start" x="391.2132" y="-173.9" font-family="Arial" font-size="14.00" fill="#666666">[TEXT]</text>
<polygon fill="none" stroke="#000000" points="315,-132.5 315,-162.5 483,-162.5 483,-132.5 315,-132.5"/>
<text text-anchor="start" x="322" y="-143.9" font-family="Arial" font-size="14.00" fill="#000000">comment    </text>
<text text-anchor="start" x="413.7644" y="-143.9" font-family="Arial" font-size="14.00" fill="#666666">[TEXT]</text>
<polygon fill="none" stroke="#000000" points="315,-102.5 315,-132.5 483,-132.5 483,-102.5 315,-102.5"/>
<text text-anchor="start" x="322" y="-113.9" font-family="Arial" font-size="14.00" fill="#000000">create_time    </text>
<text text-anchor="start" x="429.3268" y="-113.9" font-family="Arial" font-size="14.00" fill="#666666">[TEXT]</text>
<polygon fill="none" stroke="#000000" points="315,-72.5 315,-102.5 483,-102.5 483,-72.5 315,-72.5"/>
<text text-anchor="start" x="321.6045" y="-83.9" font-family="Arial" font-size="14.00" fill="#000000">update_time    </text>
<text text-anchor="start" x="432.8359" y="-83.9" font-family="Arial" font-size="14.00" fill="#666666">[TEXT]</text>
<polygon fill="none" stroke="#000000" points="315,-42.5 315,-72.5 483,-72.5 483,-42.5 315,-42.5"/>
<text text-anchor="start" x="322" y="-53.9" font-family="Arial" font-size="14.00" fill="#000000">value    </text>
<text text-anchor="start" x="389.6592" y="-53.9" font-family="Arial" font-size="14.00" fill="#666666">[TEXT]</text>
</g>
<!-- var_ref&#45;&gt;var -->
<g id="edge2" class="edge">
<title>var_ref:var_id&#45;&gt;var:var_id</title>
<path fill="none" stroke="#000000" d="M347.7571,-424.8912C358.8582,-416.3563 344.3038,-388.5754 338,-367 332.6752,-348.7753 320.3248,-349.2247 315,-331 303.3458,-291.1121 273.4444,-237.5 315,-237.5"/>
<polygon fill="#000000" stroke="#000000" points="347.6606,-424.9169 336.8376,-423.1527 342.8303,-426.2085 338,-427.5 338,-427.5 338,-427.5 342.8303,-426.2085 339.1624,-431.8473 347.6606,-424.9169 347.6606,-424.9169"/>
</g>
</g>
</svg>
