<?xml version="1.0" encoding="UTF-8" standalone="no"?>
<!DOCTYPE svg PUBLIC "-//W3C//DTD SVG 1.1//EN"
 "http://www.w3.org/Graphics/SVG/1.1/DTD/svg11.dtd">
<!-- Generated by graphviz version 2.40.1 (20161225.0304)
 -->
<!-- Title: vw_env_env_ref_env_var_unique_name Pages: 1 -->
<svg width="508pt" height="195pt"
 viewBox="0.00 0.00 508.00 195.00" xmlns="http://www.w3.org/2000/svg" xmlns:xlink="http://www.w3.org/1999/xlink">
<g id="graph0" class="graph" transform="scale(1 1) rotate(0) translate(4 191)">
<title>vw_env_env_ref_env_var_unique_name</title>
<polygon fill="#ffffff" stroke="transparent" points="-4,4 -4,-191 504,-191 504,4 -4,4"/>
<!-- vw_env_env_ref_env_var_unique_name -->
<g id="node1" class="node">
<title>vw_env_env_ref_env_var_unique_name</title>
<polygon fill="#efefef" stroke="transparent" points="46,-105.5 46,-140.5 454,-140.5 454,-105.5 46,-105.5"/>
<polygon fill="none" stroke="#000000" points="46,-105.5 46,-140.5 454,-140.5 454,-105.5 46,-105.5"/>
<text text-anchor="start" x="52.9542" y="-118.3" font-family="Arial Bold" font-size="18.00" fill="#000000">vw_env_env_ref_env_var_unique_name</text>
<text text-anchor="start" x="377.064" y="-118.3" font-family="Arial" font-size="14.00" fill="#000000">    </text>
<text text-anchor="start" x="411.2688" y="-118.3" font-family="Arial" font-size="14.00" fill="#666666">[view]</text>
<polygon fill="none" stroke="#000000" points="46,-75.5 46,-105.5 454,-105.5 454,-75.5 46,-75.5"/>
<text text-anchor="start" x="53" y="-86.9" font-family="Arial" font-size="14.00" fill="#000000">env_id </text>
<text text-anchor="start" x="98.1276" y="-86.9" font-family="Arial" font-size="14.00" fill="#666666">[INTEGER]</text>
<polygon fill="none" stroke="#000000" points="46,-45.5 46,-75.5 454,-75.5 454,-45.5 46,-45.5"/>
<text text-anchor="start" x="53" y="-56.9" font-family="Arial" font-size="14.00" fill="#000000">name </text>
<text text-anchor="start" x="91.899" y="-56.9" font-family="Arial" font-size="14.00" fill="#666666">[TEXT]</text>
<polygon fill="none" stroke="#000000" stroke-width="3" points="44.5,-44.5 44.5,-142.5 455.5,-142.5 455.5,-44.5 44.5,-44.5"/>
</g>
</g>
</svg>
