<?xml version="1.0" encoding="UTF-8" standalone="no"?>
<!DOCTYPE svg PUBLIC "-//W3C//DTD SVG 1.1//EN"
 "http://www.w3.org/Graphics/SVG/1.1/DTD/svg11.dtd">
<!-- Generated by graphviz version 2.40.1 (20161225.0304)
 -->
<!-- Title: vw_var_expanded Pages: 1 -->
<svg width="330pt" height="375pt"
 viewBox="0.00 0.00 330.00 375.00" xmlns="http://www.w3.org/2000/svg" xmlns:xlink="http://www.w3.org/1999/xlink">
<g id="graph0" class="graph" transform="scale(1 1) rotate(0) translate(4 371)">
<title>vw_var_expanded</title>
<polygon fill="#ffffff" stroke="transparent" points="-4,4 -4,-371 326,-371 326,4 -4,4"/>
<!-- vw_var_expanded -->
<g id="node1" class="node">
<title>vw_var_expanded</title>
<polygon fill="#efefef" stroke="transparent" points="46,-285.5 46,-320.5 276,-320.5 276,-285.5 46,-285.5"/>
<polygon fill="none" stroke="#000000" points="46,-285.5 46,-320.5 276,-320.5 276,-285.5 46,-285.5"/>
<text text-anchor="start" x="52.9849" y="-298.3" font-family="Arial Bold" font-size="18.00" fill="#000000">vw_var_expanded</text>
<text text-anchor="start" x="199.0333" y="-298.3" font-family="Arial" font-size="14.00" fill="#000000">    </text>
<text text-anchor="start" x="233.2381" y="-298.3" font-family="Arial" font-size="14.00" fill="#666666">[view]</text>
<polygon fill="none" stroke="#000000" points="46,-255.5 46,-285.5 276,-285.5 276,-255.5 46,-255.5"/>
<text text-anchor="start" x="53" y="-266.9" font-family="Arial" font-size="14.00" fill="#000000">var_id </text>
<text text-anchor="start" x="95.0056" y="-266.9" font-family="Arial" font-size="14.00" fill="#666666">[INTEGER]</text>
<polygon fill="none" stroke="#000000" points="46,-225.5 46,-255.5 276,-255.5 276,-225.5 46,-225.5"/>
<text text-anchor="start" x="53" y="-236.9" font-family="Arial" font-size="14.00" fill="#000000">env_id </text>
<text text-anchor="start" x="98.1276" y="-236.9" font-family="Arial" font-size="14.00" fill="#666666">[INTEGER]</text>
<polygon fill="none" stroke="#000000" points="46,-195.5 46,-225.5 276,-225.5 276,-195.5 46,-195.5"/>
<text text-anchor="start" x="53" y="-206.9" font-family="Arial" font-size="14.00" fill="#000000">env_name </text>
<text text-anchor="start" x="122.2468" y="-206.9" font-family="Arial" font-size="14.00" fill="#666666">[TEXT]</text>
<polygon fill="none" stroke="#000000" points="46,-165.5 46,-195.5 276,-195.5 276,-165.5 46,-165.5"/>
<text text-anchor="start" x="53" y="-176.9" font-family="Arial" font-size="14.00" fill="#000000">name </text>
<text text-anchor="start" x="91.899" y="-176.9" font-family="Arial" font-size="14.00" fill="#666666">[TEXT]</text>
<polygon fill="none" stroke="#000000" points="46,-135.5 46,-165.5 276,-165.5 276,-135.5 46,-135.5"/>
<text text-anchor="start" x="53" y="-146.9" font-family="Arial" font-size="14.00" fill="#000000">value </text>
<text text-anchor="start" x="90.345" y="-146.9" font-family="Arial" font-size="14.00" fill="#666666">[TEXT]</text>
<polygon fill="none" stroke="#000000" points="46,-105.5 46,-135.5 276,-135.5 276,-105.5 46,-105.5"/>
<text text-anchor="start" x="53" y="-116.9" font-family="Arial" font-size="14.00" fill="#000000">comment </text>
<text text-anchor="start" x="114.4502" y="-116.9" font-family="Arial" font-size="14.00" fill="#666666">[TEXT]</text>
<polygon fill="none" stroke="#000000" points="46,-75.5 46,-105.5 276,-105.5 276,-75.5 46,-75.5"/>
<text text-anchor="start" x="53" y="-86.9" font-family="Arial" font-size="14.00" fill="#000000">create_time </text>
<text text-anchor="start" x="130.0126" y="-86.9" font-family="Arial" font-size="14.00" fill="#666666">[TEXT]</text>
<polygon fill="none" stroke="#000000" points="46,-45.5 46,-75.5 276,-75.5 276,-45.5 46,-45.5"/>
<text text-anchor="start" x="53" y="-56.9" font-family="Arial" font-size="14.00" fill="#000000">update_time </text>
<text text-anchor="start" x="133.9172" y="-56.9" font-family="Arial" font-size="14.00" fill="#666666">[TEXT]</text>
<polygon fill="none" stroke="#000000" stroke-width="3" points="44.5,-44.5 44.5,-322.5 277.5,-322.5 277.5,-44.5 44.5,-44.5"/>
</g>
</g>
</svg>
